<?xml version="1.0" encoding="utf-8"?>
<!-- Generator: Adobe Illustrator 18.0.0, SVG Export Plug-In . SVG Version: 6.00 Build 0)  -->
<!DOCTYPE svg PUBLIC "-//W3C//DTD SVG 1.1//EN" "http://www.w3.org/Graphics/SVG/1.1/DTD/svg11.dtd">
<svg version="1.1" id="Layer_4" xmlns="http://www.w3.org/2000/svg" xmlns:xlink="http://www.w3.org/1999/xlink" x="0px" y="0px"
	 width="40px" height="44px" viewBox="61.8 76.3 40 44" style="enable-background:new 61.8 76.3 40 44;" xml:space="preserve">
<style type="text/css">
	.st0{fill:#BA7763;}
	.st1{fill:#9E6554;}
	.st2{fill:#E8A09B;}
	.st3{fill:#FFBDBA;}
	.st4{fill:#E39C8C;}
	.st5{fill:#FFF5F5;}
	.st6{fill:#292727;}
	.st7{fill:#8F5B59;}
	.st8{fill:#FFCDCA;}
	.st9{fill:#E3A496;}
</style>
<g id="leg_x5F_left_1_">
	<g id="use91_2_">
		<g id="Layer_1_26_">
			<path id="path63_2_" class="st0" d="M89.4,113.7c0.1-0.2,0.1-0.4,0.2-0.6
				c0.2-0.5,0.4-0.7,0.5-0.7c0.4,0,0.9-0.1,1.4-0.3c0.4-0.2,0.7-0.2,0.7-0.2c0.2,0.1,0,0.4-0.7,0.7l0.9,0c-0.3,0.8-0.6,1.3-1,1.5
				c-0.4,0.3-0.8,0.3-1.2,0.2C90.3,114.4,89.4,113.7,89.4,113.7z"/>
			<path id="path65_2_" class="st1" d="M89.5,112.8l1.1,0.4c0.8,0.2,1.4-0.1,1.9-0.7
				c-0.3,0.8-0.6,1.3-1,1.5c-0.4,0.3-0.8,0.3-1.2,0.2l-0.9-0.7C89.4,113.6,89.5,112.8,89.5,112.8z"/>
			<path id="path67_2_" class="st2" d="M81.3,107.2c-0.6-1.1-0.9-1.7-0.9-1.9
				c-0.1-0.6,0.4-1,1.5-1c1.7-0.1,3.1,0.4,4.2,1.6c0.9,1,1.2,2,1,3c-0.2,1-0.4,1.5-0.6,1.7l0.6,0.4c0.6,0.3,1.3,0.5,2.2,0.7l2,0.5
				c-0.2,0-0.4,0-0.6,0c-0.5,0.1-0.8,0.2-0.9,0.5c-0.2,0.4-0.3,0.8-0.1,1.1c-1.2-0.2-2.6-0.4-4.2-0.8c-3.2-0.8-4.7-1.7-4.5-2.7
				c0.2-0.4,0.4-0.8,0.5-1.1C81.8,108.7,81.7,108,81.3,107.2z"/>
		</g>
	</g>
</g>
<g id="arm_x5F_left_1_">
	<g id="use94_2_">
		<g id="Layer_1_25_">
			<path id="path5_2_" class="st0" d="M86.8,112.4l0.8-0.2c0.6-0.1,1-0.1,1.2,0.1
				c0.4,0.2,0.9,0.6,1.6,1.2c0.7,0.7,1.1,1.2,1,1.3c-0.2,0.3-0.7,0.1-1.6-0.6l0.8,1.2c-1,0.3-1.8,0.4-2.3,0.1
				c-0.4-0.1-0.7-0.4-0.9-0.8l-0.3-0.6C86.9,114.2,86.8,112.4,86.8,112.4z"/>
			<path id="path7_2_" class="st1" d="M87.9,113.3l0.3,1c0.4,0.7,1.2,1.1,2.2,1.1
				c-1,0.3-1.8,0.4-2.3,0.1c-0.4-0.1-0.7-0.4-0.9-0.8l-0.3-0.6v-0.5C86.9,113.6,87.9,113.3,87.9,113.3z"/>
			<path id="path9_2_" class="st3" d="M81.9,106.7l-0.3-1.4c0.8-1.9,1.8-2.6,2.9-2.1
				c1,0.4,1.7,1.3,2,2.6c0.7,2.6,1.9,5.1,3.7,7.4c0,0-0.2,0.2-0.7,0.4c-1,0.6-1.9,0.6-2.7,0.1c-0.1-0.4-0.2-0.8-0.4-1.3
				c-0.5-1-1.2-1.9-2.2-2.6C83.1,108.9,82.3,107.9,81.9,106.7z"/>
			<path id="path11_2_" class="st2" d="M82.8,108.4l-0.3-1.8c0-0.1,0.3-0.5,0.9-1.1
				c0.6-0.5,1.3-1.1,2.1-1.6c0.6,0.6,0.9,1.3,1.1,1.9c0.3,1.2,0.8,2.5,1.6,4c-0.5-0.1-0.8,0.1-1,0.6c-0.2,0.4-0.2,1,0,1.6
				c0.3,0.8,0.9,1.4,1.8,1.9c-0.5,0.1-0.9,0.1-1.4,0l-0.6-0.2c-0.1-0.4-0.2-0.8-0.4-1.3c-0.5-1-1.2-1.9-2.2-2.6
				C83.9,109.5,83.4,109,82.8,108.4z"/>
		</g>
	</g>
</g>
<g id="ear_x5F_left_1_">
	<g id="use97_2_">
		<g id="Layer_1_24_">
			<path id="path33_2_" class="st2" d="M86.6,81.7c0.1,0.5,0.1,1-0.2,1.6
				c-0.5,1.2-1.5,2.1-3.2,2.8C82,86.8,80.4,86,78.5,84L76,80.8l0.8-0.8c0.8-0.6,1.9-0.9,3.4-1c2.2-0.1,3.9,0.3,5.3,1.3
				C86,80.7,86.4,81.2,86.6,81.7z"/>
		</g>
	</g>
</g>
<g id="tail_1_">
	<g id="use100_2_">
		<g id="Layer_1_23_">
			<path id="path145_2_" class="st3" d="M65.2,110c0.7,0.2,0.8,0.4,0.5,0.6
				c-0.4,0.4-0.9,0.4-1.5,0c-0.4-0.2-0.5-0.6-0.4-1.1c0,0.3,0.2,0.4,0.4,0.5C64.6,110.2,64.9,110.2,65.2,110z"/>
			<path id="path147_2_" class="st3" d="M66.5,109.4C66.5,109.5,66.5,109.5,66.5,109.4l-0.3,0.1
				c0.3-0.4,0.3-0.7-0.1-0.8c-0.2-0.1-0.4-0.1-0.5,0.1c-0.1,0.2-0.1,0.3,0,0.5C65.8,109.7,66.1,109.8,66.5,109.4z M64.9,108.3
				c0.3-0.3,0.6-0.5,1-0.4c0.8,0,1.1,0.4,1,1.2v0c0.1-0.1,0.2-0.3,0.4-0.5c0.2-0.3,0.4-0.5,0.6-0.5c0.3,0,0.5,0.1,0.8,0.4
				c0.3,0.3,0.4,0.7,0.3,1.1c-0.1,0.9-1,1.3-2.5,1.3c-1.3,0-1.9-0.6-2-1.6C64.5,109,64.7,108.6,64.9,108.3z"/>
			<path id="path149_2_" class="st2" d="M68,108.1c0.3,0,0.5,0.1,0.8,0.4c0.3,0.3,0.4,0.7,0.3,1.1
				c-0.1,0.9-1,1.3-2.5,1.3c-0.8,0-1.3-0.3-1.7-0.7l0.2,0.1c0.5,0.3,1,0.5,1.6,0.4c0.6-0.1,0.9-0.3,1-0.7c0.1-0.3,0-0.7-0.2-1
				l-0.3-0.4C67.5,108.3,67.8,108.1,68,108.1z"/>
		</g>
	</g>
</g>
<g id="body1_1_">
	<g id="use103_2_">
		<g id="Layer_1_22_">
			<path id="path27_2_" class="st3" d="M86.7,97.6c-1.2,0.4-2,1.2-2.4,2.3c-0.4,1.1-0.3,3,0.1,5.8
				c0.2,2.7-0.3,4.7-1.6,5.9c-1.2,1.2-2.7,2.2-4.4,2.8c-1.9,0.7-3.8,0.8-5.5,0.4c1.7,0.8,3.6,1.1,5.5,0.9c1.6-0.1,3-0.6,4.2-1.3
				c-2.8,1.8-5.9,2-9.4,0.5c-4.1-1.7-6.1-5-5.8-9.8c0.2-3.2,1.6-6.2,4.3-9.1c1.4-1.4,2.7-2.6,4-3.3C84.5,85.1,88.2,86.8,86.7,97.6z"
				/>
			<path id="path29_2_" class="st2" d="M86.7,97.6c0.5-0.2,0.8-0.1,1.1,0.1
				c0.3,0.2,0.4,0.4,0.3,0.3c-0.3,0.4-0.5,0.7-0.7,0.9c-0.3,0.3-0.7,1-1,2.2c-0.2,0.7,0,2.4,0.5,5.3c0.1,3-1.1,5.4-3.5,7.3
				c-0.1,0.1-0.2,0.1-0.3,0.2l-0.5,0.3c-1.2,0.7-2.6,1.2-4.2,1.3c-2,0.2-3.8-0.1-5.6-0.9c1.8,0.4,3.7,0.3,5.6-0.4
				c1.7-0.6,3.2-1.5,4.4-2.8c1.3-1.3,1.8-3.3,1.5-5.9c-0.4-2.8-0.5-4.7-0.1-5.8C84.7,98.8,85.5,98,86.7,97.6z"/>
		</g>
	</g>
</g>
<g id="head1_1_">
	<g id="use106_2_">
		<g id="Layer_1_21_">
			<path id="path57_2_" class="st3" d="M95.5,95.8l-0.1-0.1c-1.7,0.6-2.8,1-3.4,1.2
				c-1.1,0.3-2.2,0.5-3.4,0.5c-0.9,0-1.9,0.3-3,0.9c-4.8,0.2-8.1-1.7-9.8-5.7c-0.5-2.3-0.5-4.7,0.2-7c1.3-4.7,4.8-7.1,10.6-7.1
				c3.9,0,6.6,1.3,8.2,3.8c0.2,0.4,0.7,1.3,1.4,2.8c0.4,1,0.9,1.6,1.3,1.9c1,0.5,1.7,0.7,1.9,0.4l0.4,1.3c0.2,1.2-0.1,2.3-0.8,3.6
				c-0.8,1.4-1.7,2.4-2.8,3C96,95.5,95.8,95.6,95.5,95.8z"/>
			<path id="path59_2_" class="st2" d="M95.5,95.8L95.5,95.8c-0.3,0.2-0.7,0.3-1.3,0.5l-0.5,0.2
				c-0.8,0.3-1.6,0.6-2.6,0.8c-1.2,0.4-2.1,0.7-2.6,1c-0.5,0.3-1,0.5-1.5,0.7c-0.5,0.2-1,0-1.3-0.8c1.1-0.6,2.1-0.9,3-0.9
				c1.1,0,2.3-0.2,3.3-0.5c0.6-0.2,1.7-0.5,3.4-1.2C95.3,95.7,95.5,95.8,95.5,95.8z"/>
		</g>
	</g>
</g>
<g id="arm_x5F_right_1_">
	<g id="use109_2_">
		<g id="Layer_1_20_">
			<path id="path15_2_" class="st0" d="M81.4,114.7l0.9-0.1c0.7,0,1.1,0,1.4,0.1
				c0.4,0.2,1,0.7,1.8,1.5c0.8,0.9,1.2,1.4,1,1.6c-0.2,0.3-0.8,0-1.8-0.8l0.8,1.5c-1.2,0.3-2.2,0.3-2.8,0c-0.4-0.2-0.7-0.5-1-1
				l-0.3-0.6C81.5,116.8,81.4,114.7,81.4,114.7z"/>
			<path id="path17_2_" class="st1" d="M82.7,115.8l0.4,1.2c0.5,0.9,1.3,1.4,2.5,1.5
				c-1.2,0.3-2.2,0.3-2.8,0c-0.4-0.2-0.7-0.5-1-1l-0.3-0.6v-0.7C81.5,116.1,82.7,115.8,82.7,115.8z"/>
			<path id="path19_2_" class="st2" d="M77,109c-0.4-1.1-0.5-2.1-0.3-3l0.3-1l4.3,3.5l0.1,7.1
				c-0.1-0.9-0.7-1.9-2-3.1C78.2,111.2,77.4,110.1,77,109z"/>
			<path id="path21_2_" class="st2" d="M83.9,110.4c-0.2,0.7-0.5,1.2-0.7,1.5
				c-0.5-1.6-0.9-3.3-1.3-5l-1-2.7c0.4,0,1.1,0.5,1.9,1.5c0.5,0.6,0.9,1.4,1.1,2.3C84.2,108.9,84.2,109.7,83.9,110.4z"/>
			<path id="path23_2_" class="st3" d="M77,105c1.3-2.1,2.8-2.3,4.3-0.6c1.4,1.5,2,3,1.9,4.6
				c-0.1,1.3,0.2,2.8,0.9,4.6c0.3,0.9,0.7,1.7,1,2.3l-0.8,0.3c-0.6,0.2-1.6,0.4-3,0.5c0-0.6-0.1-1.3-0.3-2.1c-0.4-1.6-1.1-2.9-2-3.9
				c-1.2-1.3-1.9-2.7-2.1-4.1V105z"/>
		</g>
	</g>
</g>
<g id="leg_x5F_right_1_">
	<g id="use112_2_">
		<g id="Layer_1_19_">
			<path id="path71_2_" class="st2" d="M69.3,107.6c0.4-0.5,1.4-1,2.9-1.3
				c1.5-0.3,2.7,0.4,3.6,2.1c1,1.7,1.1,3.1,0.4,4.1c-0.7,1.1-0.7,1.8,0,2.2c0.7,0.4,1.3,0.7,1.7,0.8l-0.6,0.1
				c-1.9,0-3.6-0.4-5.2-1.3c-1.7-0.9-3-2.3-3.8-3.9l0.1-0.3C68.6,109,68.9,108.2,69.3,107.6z"/>
			<path id="path73_2_" class="st0" d="M80.8,115.6c0.3,0.2,0,0.4-0.9,0.8l1.3,0.1
				c-0.3,0.9-0.8,1.5-1.3,1.8c-0.5,0.3-1,0.3-1.6,0.2l-1.4-0.9c0.1-0.3,0.2-0.5,0.3-0.8c0.2-0.6,0.4-0.8,0.7-0.8
				c0.6,0,1.2,0,1.9-0.2C80.5,115.7,80.8,115.6,80.8,115.6z"/>
			<path id="path75_2_" class="st1" d="M77.1,116.4l1.6,0.7c1.1,0.3,2,0.1,2.7-0.6
				c-0.3,0.9-0.8,1.5-1.3,1.8c-0.5,0.3-1,0.3-1.6,0.2l-1.4-1c0.1-0.2,0.1-0.5,0.1-0.7C77.1,116.7,77.1,116.4,77.1,116.4z"/>
			<path id="path77_2_" class="st3" d="M74.8,114.4c0.6,0.4,1.4,0.7,2.3,0.8
				c0.7,0.2,1.4,0.4,2.1,0.7c-0.2,0-0.4,0-0.6,0.1c-0.5,0.1-0.8,0.3-0.9,0.6c-0.2,0.5-0.3,1-0.1,1.4c-1.2-0.2-2.7-0.5-4.3-1
				c-3.3-1-4.8-2.1-4.7-3.3c0.3-0.6,0.4-1,0.5-1.4c0.2-0.7,0.1-1.5-0.3-2.5c-0.4-0.8-0.3-1.6,0-2.4c0.5-0.8,1.3-1.3,2.6-1.3
				c1.7-0.1,3,0.6,3.8,2c0.7,1.2,0.9,2.4,0.6,3.8c-0.2,1.2-0.8,1.9-1.7,2.2C74.1,113.9,74.8,114.4,74.8,114.4z"/>
		</g>
	</g>
</g>
<g id="ear_x5F_right_1_">
	<g id="use115_2_">
		<g id="Layer_1_18_">
			<path id="path37_2_" class="st3" d="M81.3,82.9c0.4,0.5,0.6,1.2,0.7,2.1
				c0.1,1.8-0.8,3.5-2.6,5.3C78,91.8,75.6,91.7,72,90c-1.8-0.8-3.4-1.8-4.9-2.8c0-0.4,0.2-0.9,0.6-1.4c0.7-1.1,2-2.2,3.8-3.1
				c2.8-1.4,5.3-1.7,7.5-1.1C80,81.9,80.8,82.3,81.3,82.9z"/>
			<path id="path39_2_" class="st4" d="M81.9,84.5c0.2,1.4-0.2,2.8-1.1,4.2
				c-0.5,0.3-1,0.6-1.6,0.7c-2.4,0.4-4.5,0.1-6.3-1L71,86.6c0.1-0.3,0.3-0.7,0.7-1.1c0.9-0.9,2.2-1.5,4.1-2
				C78.6,82.8,80.6,83.2,81.9,84.5z"/>
			<path id="path41_2_" class="st0" d="M75.8,83.5c2.7-0.7,4.8-0.3,6.1,1l0.1,0.8
				c-1.6-1-3.6-1.3-5.9-0.9c-2.4,0.4-4.1,1.1-5,2.3c0-0.3,0.3-0.7,0.8-1.2C72.7,84.6,74,84,75.8,83.5z"/>
			<path id="path43_2_" class="st3" d="M78.8,86.5l-0.4,0.3L79,86c0.3-0.5,1-0.8,1.9-1.1h-0.5
				l-1.6,0.3l1.1-0.4c0.6-0.3,1.3-0.4,2-0.3c0.2,0.2,0.3,0.5,0.3,0.9c0,0.4-0.2,0.8-0.4,1.1l-0.4-0.1c-0.3,0-0.6,0.1-0.9,0.4
				l-0.3,0.4L80,86.7c0-0.2,0-0.4,0.2-0.7c0.1-0.1,0.2-0.2,0.3-0.3c-0.1,0-0.4,0.1-0.8,0.3C79.4,86.1,79.1,86.3,78.8,86.5z"/>
		</g>
	</g>
</g>
<g id="mouth_1_">
	<g id="use118_2_">
		<g id="Layer_1_17_">
			<path id="path81_2_" class="st0" d="M91.2,95.4c-0.8-0.4-1.5-0.7-2-1.1l-0.5-0.4l0.5,0.3
				c0.5,0.3,1.3,0.5,2.2,0.8c1.3,0.4,2.5,0.6,3.6,0.6c0.6,0,1-0.1,1.3-0.3l0.2-0.2L96,95.7l-1,0.4C93.7,96.2,92.4,95.9,91.2,95.4z"
				/>
		</g>
	</g>
</g>
<g id="eye1_1_">
	<g id="use121_2_">
		<g id="Layer_5_1_">
			<path id="path47_2_" class="st5" d="M92.8,89.2c-0.1,0.9-0.5,1.7-1.3,2.4
				c-0.8,0.6-1.6,0.9-2.6,0.8c-1-0.1-1.8-0.5-2.4-1.2s-0.9-1.6-0.8-2.6c0.1-1,0.5-1.8,1.3-2.4c0.8-0.6,1.6-0.9,2.6-0.8
				c1,0.1,1.8,0.5,2.4,1.3C92.6,87.4,92.9,88.3,92.8,89.2z"/>
		</g>
	</g>
</g>
<g id="pupil1_1_">
	<g id="use124_2_">
		<g id="Layer_1_16_">
			<path id="path137_2_" class="st6" d="M92.5,88.8c0,0.7-0.3,1.3-0.8,1.8
				c-0.5,0.5-1.1,0.7-1.9,0.7c-0.7,0-1.3-0.2-1.8-0.7c-0.5-0.5-0.8-1.1-0.8-1.8s0.3-1.3,0.8-1.8c0.5-0.5,1.1-0.7,1.8-0.7
				c0.7,0,1.4,0.2,1.9,0.7C92.3,87.6,92.5,88.2,92.5,88.8z"/>
			<path id="path139_2_" class="st5" d="M90.7,87.8c0,0.4-0.1,0.7-0.4,1c-0.3,0.3-0.6,0.4-1,0.4
				c-0.4,0-0.7-0.1-1-0.4c-0.3-0.3-0.4-0.6-0.4-1c0-0.4,0.1-0.7,0.4-1c0.3-0.3,0.6-0.4,1-0.4c0.4,0,0.7,0.1,1,0.4
				C90.6,87.1,90.7,87.4,90.7,87.8z"/>
			<path id="path141_2_" class="st7" d="M88.8,90.4h0.5c0.4,0,0.8-0.1,1.3-0.3
				c0.9-0.4,1.4-0.9,1.5-1.6c0.2,0.9-0.2,1.6-1.2,2.1c-0.5,0.3-1,0.3-1.5,0.2C89.4,90.8,88.8,90.4,88.8,90.4z"/>
		</g>
	</g>
</g>
<g id="hair_1_">
	<g id="use129_2_">
		<g id="Layer_1_15_">
			<path id="path51_2_" class="st2" d="M87.2,77.8c0,0.1,0,0.2,0,0.3c-0.1,0.1-0.3,0.2-0.5,0.2
				h-0.2l1.2,0.5c0.4,0.2,0.8,0.5,1.2,0.8c0.1,0.1-0.3,0.2-1.2,0.1L86,79.6l0.4,0.6c0.1,0.3,0.1,0.5,0,0.6c-0.2,0-0.5-0.1-0.9-0.3
				l-0.8-0.6l-1.4-0.1L83,79.5l0-0.1c0.1-0.1,0.3-0.2,0.8-0.3l0.3-0.3c0.3-0.2,0.5-0.4,0.7-0.4C85.2,78.2,86,78,87.2,77.8z"/>
			<path id="path53_2_" class="st3" d="M87,79.6c-0.5-0.1-0.8-0.1-1.1-0.2l-0.2-0.1
				c0.5,0.7,0.7,1,0.6,1.1l0,0.2c-0.5-0.3-0.9-0.5-1.1-0.6l-0.3-0.3l-3.1,0.2c-0.3,0-0.5,0-0.6-0.1l-0.1-0.1l1-0.7
				c0.8-0.5,1.7-0.8,2.7-0.9c1.5-0.2,2.4-0.2,2.6-0.2c-0.1,0.2-0.3,0.4-0.8,0.4l-0.7,0l0.8,0.3c0.6,0.2,1,0.4,1.3,0.6l0.7,0.4
				C88.3,79.7,87.8,79.7,87,79.6z"/>
		</g>
	</g>
</g>
<g id="nose_1_">
	<g id="use132_2_">
		<g id="Layer_1_8_">
			<path id="path85_2_" class="st8" d="M99.3,87.5l0.4,1.3c0.2,1.2-0.1,2.4-0.8,3.6
				c-0.6,1.1-1.4,2-2.2,2.7c-0.8-0.3-1.2-1.3-1-3c0.2-1.8,0.8-3,1.9-3.8c0.6-0.4,1.1-0.6,1.3-0.7C99,87.6,99.3,87.5,99.3,87.5z"/>
			<path id="path87_2_" class="st9" d="M98.8,90.1c-0.1,0.3-0.2,0.6-0.3,1
				c0.1,0.5,0.2,0.8,0.2,0.9c-0.1,0.5-0.4,0.9-0.7,1.2c-0.3,0.3-0.5,0.2-0.6-0.2c-0.1-0.6,0.1-1.2,0.6-1.9
				C98.2,90.7,98.5,90.4,98.8,90.1z"/>
		</g>
	</g>
</g>
</svg>
