<?xml version="1.0" encoding="utf-8"?>

<!DOCTYPE svg PUBLIC "-//W3C//DTD SVG 1.1//EN" "http://www.w3.org/Graphics/SVG/1.1/DTD/svg11.dtd">
<svg version="1.1" id="Layer_1" xmlns="http://www.w3.org/2000/svg" xmlns:xlink="http://www.w3.org/1999/xlink" x="0px" y="0px"
	 viewBox="0 0 1458.3 1776.609" enable-background="new 0 0 1458.3 1776.609" xml:space="preserve">
<g>
	<path fill="#693A0C" stroke="#693A0C" d="M898.33,43.555c9.13-1.6,18.37,0.51,27.19,2.82c14.86,4.08,28.54,12.76,37.86,25.11
		c12.97,17.28,20.17,38.61,21.73,60.06c-0.48,11.13-3.32,22.09-7.35,32.44c-5.49,13.63-15.04,25.58-27.31,33.71
		c-12.88,9.41-28.29,14.05-42.71,20.43c-0.33,0.22-0.99,0.65-1.33,0.86l0.29,0.69c1.2,3.07,2.34,6.32,4.96,8.51
		c8.23,7.48,16.52,14.95,25.66,21.34c22.87,16.31,49.15,27.31,76.09,34.92c18.4,5.17,36.97,9.87,55.82,13.12
		c20.17,3.99,40.45,7.76,60.08,14c12.7,4.22,25.47,8.81,36.71,16.25c13.57,8.56,25.55,20.85,30.62,36.37
		c2.54,7.67,4.79,15.62,4.74,23.76c-0.09,1.73-0.09,3.46,0,5.2c-0.62,15.71-6.01,30.84-12.46,45.04
		c-16.07,32.95-42.52,59.58-71.47,81.5c-46.17,35.03-101.61,56.45-158.4,66.61c-14.26,2.4-28.59,4.54-43.01,5.52
		c-2.68,0.16-5.32,0.62-7.99,0.58c0.78,0.19,2.33,0.57,3.11,0.77l0.92,0.54c0.49,0.23,1.46,0.7,1.95,0.93
		c7.91,4.48,16.7,7.08,24.64,11.53c13.61,7.27,26.81,17.11,33.54,31.42c3.73,8.37,6.68,17.4,6.6,26.65
		c-1.64,16.39-8.81,31.98-19.08,44.76c-1.81,2.18-3.66,4.41-6.01,6.05c-0.67,0.43-1.33,0.84-1.98,1.27c-0.1,1.56-0.2,3.12-0.26,4.7
		c-2.77-1.58-2.68,3.01-0.03,0.82c0.4-0.16,1.19-0.5,1.59-0.66c8.34,0.05,16.09-3.39,23.85-6.08c15.21-5.85,30.33-12.19,44.35-20.59
		c15.95-9.29,31.32-19.65,45.5-31.49c18.83-15.06,35.08-32.93,52.27-49.76c6.66-6.68,12.7-13.95,19.4-20.61
		c6.92-8.05,14.77-15.24,21.68-23.31c12.22-12.79,24.93-25.11,38.33-36.67c13.17-11.05,27.45-21.12,43.55-27.45
		c3.25-1.38,7.43-2.84,8.07-6.85c1.95-9.19,3.18-18.64,6.71-27.41c2.89-6.87,8.02-13.37,15.38-15.65c4.22-1.46,8.54,1.01,11.6,3.79
		c6.26,5.89,9.02,14.41,10.43,22.67c1.3,6.15,0.36,12.43,0.2,18.64c3.25,2.31,6.78,4.17,10.5,5.62c4.79,1.92,9.15,5.1,14.29,6.07
		c2.39,0.67,4.3-1.31,5.78-2.9c3.09-3.62,5.5-7.77,8.71-11.3c6.35-7.29,14.54-13.24,23.87-16.02c6.01-1.87,12.14,1.07,17.03,4.43
		c5.82,4.25,10.15,12,7.88,19.28c-3.76,14.05-13.89,24.98-20.36,37.73c-1.85,3.5-1.94,7.89,0.1,11.34
		c3.32,5.59,6.2,11.66,11.27,15.94c7.98-2.12,14.71-7.36,22.8-9.18c7.31-2.27,15.88-0.6,21.41,4.79c4.01,4.71,6.52,11.31,4.82,17.48
		c-2.21,9.37-9.37,16.74-17.33,21.71c-5.89,3.85-13.02,5.17-18.77,9.26c-0.03,7.03,1.51,14.07,0.32,21.09
		c-2.06,18.98-7.79,37.55-16.82,54.37c-14.48,26.9-35.44,49.71-58.3,69.71c-27.95,24.27-59,44.68-91.17,62.88
		c-18.35,10.7-37.42,20.04-56.45,29.44c-18.62,8.59-37.65,16.29-57.06,22.93c-5.09,1.69-11.02,3.14-13.78,8.26
		c-7.33,12.25-17.33,23.76-30.93,29.08c-12.58,4.93-26.05,7.83-39.53,8.5c-4.89-0.39-9.8-0.41-14.68-0.01
		c-7.28,0.05-14.48-1.3-21.65-2.32c-12.16-2.01-24.4-4.03-36.1-8c-3.65-1.24-7.52-1.55-11.25-2.37c-0.52-2.15-3.17-0.96-1.63,0.76
		c2.37,9.83,7.69,18.5,11.92,27.59c16.39,35.76,32.18,72.06,41.69,110.36c1.8,6.57,2.96,13.33,5.15,19.79
		c2.19,5.85,8.51,8.29,13.04,12.02c22.71,16.99,44.75,35.07,64.46,55.52c12.27,11.76,23.34,24.68,34.61,37.37
		c18.21,21.36,35.68,43.43,51.05,66.94c6.01,9.07,12.22,18.05,17.31,27.68c2.52,4.05-1.26,7.9-4.11,10.45
		c-6.84,5.8-12.81,12.54-19.67,18.32c-2.29,2.11-5.05,4.35-5.32,7.7c-0.63,4.87,2.11,9.19,4.34,13.28
		c9.71,18.3,20.7,36.05,34.33,51.71c13.65,16.6,29.37,31.27,44.44,46.54c2.58,2.49,5.34,5.34,9.12,5.75
		c9.09,0.93,17.86-2.92,26.93-2.51c0.59,0,1.78,0.01,2.37,0.01c6.8-0.26,13.39,1.86,19.94,3.43c19.15,5.48,37.23,15.47,51.17,29.82
		c9.15,9.25,16.4,20.55,19.78,33.2c2.77,10.65,5.59,21.76,3.72,32.82c-2.42,17.72-8.36,35.02-17.83,50.22
		c-16.65,27.38-41.39,49.27-69.28,64.76c-24.75,13.81-52.48,21.57-80.44,25.49c-9.99,1.34-20.06,2.77-30.16,2.34
		c-1.74-0.14-3.47-0.14-5.18,0c-8.84,0.45-17.63-0.91-26.37-2.08c-19.61-2.92-39-8.23-56.68-17.34
		c-15.39-8.11-29.33-19.23-39.72-33.24c-15.43-20.72-22.9-46.61-23.91-72.21c0-3.13,0.02-6.24,0.03-9.34
		c0.81-25.94,6.04-51.55,6.46-77.52c0.72-8.52,0.68-17.09,0-25.6c-0.18-11.21-1.04-22.4-2.57-33.5c-0.42-2.93-1.67-5.62-2.79-8.31
		c-0.16-1.53-1.92-1.43-2.65-0.43c-10.3,1.35-20.18,4.69-30.42,6.36c-3.38,0.66-7.54,0.09-9.33-3.22
		c-8.18-13.85-16.51-27.77-27.26-39.82c-9.66-11.74-21.56-21.51-34.39-29.58c-29.11-18.46-63.32-27.7-97.56-29.46
		c-11.82-0.68-23.69-0.7-35.5,0c-36.95,2.3-74.45,9.6-106.96,28.05c-13.56,7.87-26.24,17.6-36.04,29.95
		c-13.78,16.79-21.73,38.04-23.32,59.64c-0.9,6.22,0.54,13.35-3.28,18.77c-4.82,3.38-11.18,3.17-16.28,6.1
		c-1.69,0.4-1.06,2.38-0.5,3.49c1.13,5.75,0.91,11.75,2.5,17.46c8.52,38.56,30.3,72.5,40.29,110.58c2.9,12.53,5.61,25.37,4.7,38.3
		c-1.75,18.96-7.62,37.74-18.11,53.71c-16.9,25.55-42.65,44.01-70.08,56.9c-21.58,9.98-44.51,16.96-67.92,21.07
		c-12.74,2.12-25.57,4.16-38.5,4.4c-9.16-0.24-18.33-0.23-27.48,0.01c-19.5-0.65-38.84-4.26-57.66-9.27
		c-18.86-5.36-37.21-12.78-53.95-23.03c-12.12-7.86-23.56-17.27-31.52-29.47c-6.84-10.01-10.73-21.83-12.18-33.81
		c-1-7.31,0.85-14.57,2.54-21.62c4.72-18.59,16.09-35.02,30.61-47.36c8.81-7.86,18.98-13.98,29.2-19.81
		c20.25-11.2,42.07-19.64,64.77-24.29c3.9-0.68,8.02-2.7,8.93-6.93c5.33-18.15,9.6-36.69,11.4-55.55c1.01-9.23,1.58-18.5,2.46-27.73
		c0.42-2.84,0.52-5.73-0.13-8.52c-6.28-2.19-14.04-1.29-19.26-5.75c-41.86-82.97-70.12-173.36-78.63-266.09
		c-0.72-6.45-0.55-13.05-2.06-19.37c-2.89-4.45-8.96-4.77-12.86-7.95c-2.03-2.38-1.34-5.76-1.5-8.62
		c0.36-11.54-0.41-23.12,0.4-34.64c0.61-4.51,0.79-9.07,0.59-13.61c-0.3-11.3,1.01-22.54,1.79-33.78
		c4.22-54.8,13.87-109.82,35.68-160.55c7.99-18.37,17.38-36.12,27.75-53.25c1.78-2.66,2.46-5.79,2.9-8.9
		c-6.56-4.03-14.25-5.3-21.39-7.93c-14.3-5.02-28.55-10.31-42.29-16.74c-16.07-7.86-32.2-15.81-47-25.95
		c-8.2-6.11-16.98-11.52-24.5-18.5c-3.03-2.77-5.57-6.13-7.02-9.98c-1.8-4.33-2.19-9.07-3.68-13.49c-0.91-2.84-3.73-4.31-6.1-5.77
		c-28.9-15.8-54.68-36.83-77.87-60.1c-25.89-27.12-48.81-57.19-67.05-89.99c-7.18-13.09-13.38-26.75-17.98-40.97
		c-5.75-16.31-9.55-33.41-10.43-50.7c-0.02-3.1-0.03-6.2-0.01-9.3c0.33-10.43,2.85-20.62,5.45-30.67
		c2.83-10.83,6.92-21.29,11.62-31.43c1.52-3.19,2.44-6.6,3.66-9.89c1.16-0.65,1.2-2.15,0.09-2.86c-3.85-6.81-10.3-11.56-14.44-18.14
		c-5.05-7.83-9.15-16.37-11.48-25.41c-1.98-6.76,0.99-14.19,6.02-18.82c4.52-3.62,10.63-6.62,16.48-4.6
		c10.7,3.23,19.44,11.08,25.76,20.1c2.06,3.01,4.75,5.49,7.2,8.17c0.52,1.35,1.14,1.4,1.85,0.12c7.06-3.45,12.74-8.96,19.31-13.17
		c2.7-1.97,6.23-4.45,5.61-8.28c-0.83-9.74-5.71-18.97-4.67-28.91c1.13-8.2,4.17-16.72,10.79-22.1c4.52-3.64,10.12-6.53,16.04-6.42
		c6.94,0.74,12.11,6.51,15.19,12.36c4.57,9.47,6.23,20.06,6.96,30.47c-0.19,2.07,2.28,1.81,3.56,1.31c7.08-1.19,14.36-2.18,21.51-1
		c4.13,0.46,8.32,1.19,12.47,0.61c2.24-1.31,3.29-3.85,4.54-6c4.63-9.16,11.98-17.39,21.57-21.44c3.33-1.47,7.19-1.74,10.57-0.24
		c10.33,3.88,17.21,14.56,17.76,25.39c-0.23,10.33-6.08,19.28-8.61,29.07c-1.2,0.62-1.16,2.13-0.06,2.83
		c2.21,5.38,5.48,10.19,8.45,15.16c8.34,15.66,13.45,32.82,16.92,50.16c5.74,26.55,7.8,53.69,10.03,80.7
		c2.08,28.08,4.57,56.7,15.15,83.08c0.99,2.15,2.06,4.53,4.27,5.69c3.78,2.03,8.06,2.99,11.69,5.34
		c6.15,3.77,9.74,10.25,14.83,15.17c25.86,26.58,56.51,49.07,91.06,62.95c27.79,11.54,57.8,16.85,87.76,18.19
		c3.21,0.32,6.42,0.56,9.64,0.8c-0.69-0.61-1.37-1.2-2.05-1.79c-3.13-2.75-5.23-6.46-8.51-9.05c-9.71-7.9-18.01-17.33-27.01-25.99
		c-23.05-24.32-43.07-51.96-55.99-83.02c-12.48-30.45-18.92-63.29-19.99-96.14c0.01-4.1,0.02-8.21,0.02-12.31
		c0.38-26.08,4.88-51.92,10.73-77.28c2.08-11.28,7.22-21.94,7.54-33.53c-35.56,2.55-72.1-12.58-95.02-40
		c-11.32-13.46-18.72-30.04-21.63-47.36c-0.3-2-0.46-4.03-0.43-6.04c0.06-2.08,0.06-4.16-0.01-6.23
		c-0.16-5.73,1.25-11.32,2.68-16.81c2.87-10.29,6.66-20.44,12.5-29.44c9.51-15.95,22.66-29.69,38.19-39.86
		c13.44-8.27,28.79-14.24,44.69-14.66c24.99,2.18,49.61,14.38,64.71,34.72c6.63,8.75,10.86,18.97,15.03,29.04
		c-0.02,1.54,1.91,1.71,2.43,0.36l0.46-0.53c0.08-0.08,0.23-0.25,0.31-0.33c5.66-4.74,9.65-10.99,14.33-16.62
		c4.89-6.07,10.01-11.96,15.39-17.61c4.58-4.76,8.64-10.03,13.68-14.35c5.9-5.07,11.3-10.7,17.22-15.75
		c12.92-11.16,26.34-21.73,39.98-32c7.96-5.99,14.79-13.44,20.22-21.79c2.11-3.53,3.99-7.19,6.3-10.59
		c3.75,4.71,4.95,10.7,6.36,16.4c1.1,4.71,1.77,9.51,1.95,14.33c0.17,9.25,0.33,18.52-0.21,27.75c0.47-0.42,0.95-0.83,1.44-1.24
		c2.83-2.49,6.44-4,8.88-6.95c10.71-12.2,20.24-25.43,28.9-39.15c6.71-10.7,11.47-22.45,15.13-34.51c4.33,4.87,6.16,11.24,8.5,17.18
		c4.23,12.12,7.01,24.84,7.65,37.67c-0.17,4.74-0.19,9.48-0.26,14.22c1.29-0.17,2.59-0.35,3.89-0.52
		c11.53-1.39,22.77-4.63,34.34-5.79c21.44-3.21,43.38-1.6,64.42,3.4c7.34,1.62,14.42,4.75,22.07,4.7l0.5,0.04l0.21-0.47
		c3.34-6.25,4.84-13.24,7.7-19.7c7.33-17.51,19.11-33.34,34.54-44.51C869.2,50.565,883.76,45.825,898.33,43.555 M862.72,67.035
		c-14.55,9.43-26.83,22.28-35.78,37.12c-5.85,9.48-9.68,19.98-12.71,30.65c-34.54-8.62-70.44-9.73-105.84-7.92
		c-6.52,0.49-13.07,0.78-19.49,2.1c-1.13,6.34-2.29,12.72-4.45,18.81c-1.75,5.09-4.28,9.86-6,14.96
		c-4.92,5.49-7.64,13.04-14.2,16.98c0.34-2.23,0.68-4.5,1.58-6.58c5.84-12.91,8.23-27.03,10.07-40.97
		c2.56-21.43,3.83-43.32-0.02-64.67c-2.91,6.06-5.24,12.37-8.37,18.32c-7.74,15.46-18.09,29.47-29.78,42.15
		c-1.54,1.75-3.22,3.45-4.2,5.58c-4.82,3.54-8.71,8.12-13.06,12.18c-4,3.59-3.34,9.47-4.66,14.24c-1.5,8.87-5.21,17.1-7.45,25.76
		c-4.25,5.36-5.6,12.66-10.94,17.24c1.02-5.97,3.44-11.56,4.87-17.42c3.15-12.45,5.26-25.16,6.39-37.95
		c1.62-17.31,2.29-34.91-0.64-52.12c-3.88,4.38-7.44,9.06-11.76,13.03c-7.38,7.03-15.7,12.95-23.51,19.47
		c-32.9,28.2-63.94,58.89-89.82,93.75c-3.05-6.54-5.45-13.39-9.23-19.56c-8.99-15.41-21.83-28.94-37.79-37.16
		c-13.11-6.74-28.36-9.42-42.93-6.87c-5.29,1-10.8,1.85-15.54,4.55c-3.42,1.02-6.78,2.29-9.89,4.05
		c-16.64,9.06-30.44,23.49-38.3,40.77c-7.51,16.57-9.81,35.3-7.15,53.26c3.01,18.35,12.14,35.54,25.38,48.56
		c11.37,11.56,25.78,19.89,41.13,24.92c6.86,2.08,13.86,4.22,21.11,4.03c8.28,2.29,17.06,1.04,25.51,0.55
		c-0.93,0.59-1.85,1.18-2.77,1.78c-1.88,0.4-3.98,0.27-5.64,1.33c-1.46,3.53-2.06,7.33-3.01,11.01
		c-5.54,22.78-9.24,46.01-10.93,69.39c-2.69,40.22,0.8,81.45,15.25,119.34c24.17,62,70,114.7,126.48,149.52
		c5.13,3.03,10.07,6.53,15.78,8.44c1.31,1.32,2.94,2.26,4.58,3.13c8.77,4.42,17.61,8.7,26.73,12.33c4.94,2.18,10.41,3.25,14.82,6.52
		c-7.13-0.2-13.77-3.03-20.58-4.81c-23.82-6.88-47.12-15.85-68.74-28.06c1.07,8.81,3.47,17.39,6.05,25.87c1.1,3.32,2,6.83,4.1,9.7
		c0.74,3.59,2.04,7.05,3.76,10.29c12.1,25.02,30.35,46.77,51.56,64.58c17.83,15.22,38.41,27.72,61.16,33.93
		c20.15,5.64,42.49,5.53,61.71-3.36c13.74-5.83,25.17-15.95,34.67-27.28c11.79-14.39,19.6-31.78,24.16-49.73
		c-14.7-1.05-29.39-2.28-43.98-4.4c-6.82-0.8-13.53-2.7-20.45-2.56c-1.56-1.04-3.42-1.41-5.2-1.82c-7.58-1.58-15.31-2.65-22.63-5.27
		c8.51,0.58,16.81,2.67,25.25,3.79c55.81,8.28,113.35,10.97,168.84-0.98c19.27-4.22,38.52-10.09,55.29-20.76
		c4.85-3.29,10.01-6.49,13.6-11.23c2.29-1.75,4.51-3.63,6.36-5.87c11.41-13.62,16.73-32.14,14.32-49.74
		c-1.84-11.82-8.04-23.01-17.46-30.45c-7.97-6.41-16.64-12.16-26.17-15.94c1.46,3.8,3.37,7.4,4.96,11.16
		c2.35,5.58,2.25,11.74,2.62,17.68c-1.22,8.36-3.98,16.63-9.31,23.3c-9.12,12.04-23.01,19.16-36.96,24.12
		c-19.87,6.98-41.22,8.64-62.13,7.46c-19.6-1.13-39.03-4.57-57.93-9.79c-31.47-8.55-61.88-20.88-90.47-36.55
		c-49.17-27.08-93.71-64.3-124.29-111.76c-19.97-30.56-33.63-64.98-41.54-100.56c-6.76,1.38-13.7,2.67-20.6,1.53
		c-12.75-1.97-24.48-8.36-34.33-16.52c6.82,2.57,13.38,5.87,20.5,7.59c9.76,2.6,20.71,3.47,30.02-1.16
		c10.49-5.31,17.25-16.03,19.84-27.26c3.39-12.26,2.75-25.14,5.32-37.53c0.43,1.76,0.98,3.51,1.11,5.33
		c0.4,15.94,2.19,32.4-2.82,47.84c-1.85,6-5.96,10.85-10.2,15.32c10.91,10.23,22.92,19.23,34.67,28.48
		c17.14,13.07,34.78,25.51,53.13,36.82c4.37,2.64,8.64,5.51,13.39,7.44c4.48,3.86,9.91,6.3,15.01,9.2
		c57.31,31.74,120.27,53.49,185.16,62.82c48.8,6.88,98.8,6.7,147.25-2.75c37.05-7.43,73.18-20.09,106.09-38.78
		c27.2-15.39,52.68-34.18,74.34-56.78c6.07-7,12.87-13.57,17.4-21.73c9.46-11.21,16.28-24.51,21.74-38.07
		c1.92-5.98,4.63-12.02,4.64-18.37c4.24-17.41-1.33-37.13-14.82-49.14c-13.66-12.26-30.46-20.51-47.79-26.2
		c-14.21-4.56-28.87-7.45-43.47-10.39c-23.63-4.73-47.4-8.96-70.6-15.55c-20.77-5.87-41.04-14.01-59.19-25.79
		c-6-3.58-11.31-8.19-17.39-11.62c-1.57-2.41-4.02-3.99-6.19-5.77c-10.12-8.18-19.28-17.49-27.81-27.29
		c-1.46-2.17-4.11-2.09-6.41-2.05c3.15-1.69,6.41-3.28,9.11-5.67c7.04-2.59,13.4-6.64,19.99-10.17
		c11.08-6.43,21.89-13.86,30.1-23.81c8.77-10.51,13.57-23.77,15.93-37.11c3.05-18.74,1.42-38.88-8.1-55.63
		c-3.58-5.96-7.39-12.08-13.09-16.25c-0.65-1.23-1.61-2.25-2.57-3.21c-11.07-10.31-25.96-16.72-41.18-16.58
		C890.14,53.585,875.4,59.025,862.72,67.035 M124.42,283.695c-6.57,9.59-7.5,21.93-5.35,33.09c0.7,4.13,1.72,8.21,3.23,12.14
		c11.54-5.33,23.24-10.6,35.85-12.82c0.08-4.25,0.3-8.53-0.54-12.72c-0.52-7.64-3.53-15.05-7.79-21.38
		c-2.84-4.08-7.1-8.06-12.38-8.04C131.7,274.545,127.49,279.195,124.42,283.695 M225.94,292.275c-7.22,2.21-12.43,8.17-16.13,14.49
		c-1.71,3.16-3.26,6.42-4.56,9.77c8.04,2.34,15.97,5.38,22.87,10.21c5.28,3.47,9.52,8.2,14.23,12.36c3.03-5.83,4.85-12.16,6.03-18.6
		c0.51-8.49,0.72-18.11-5.02-25.05C239.14,290.475,231.71,290.525,225.94,292.275 M140.08,334.025c-7.42,2.26-14.02,6.67-20.5,10.83
		c-3.21,2.3-6.74,4.42-9,7.75c-5.54,2.96-9.65,7.84-13.98,12.27c-21.02,22.28-35.85,50.62-40.89,80.92
		c-1.88,11.5-1.82,23.22-1.24,34.83c2.67,32.78,14.72,64.2,31.37,92.34c8.22,14.1,18.01,27.19,27.87,40.16
		c32.72,42.22,72.54,79.86,120.03,104.92c6.74,3.41,13.34,7.15,20.5,9.64c7.83-7.64,14.64-16.26,20.94-25.19
		c8.36-12.1,16.75-24.2,24.17-36.91c8.01-13.98,14.81-28.96,17.41-44.96c-7.83-7.68-15.19-15.87-21.35-24.97
		c-6.03-9.65-11.24-19.91-14.38-30.89c-1.85-5.68-2.66-11.63-4.64-17.27c-0.04-3.8-1.22-7.46-1.72-11.21
		c-3.74-24.77-3.96-49.88-5.61-74.84c-1.39-19.31-3.23-38.65-7.05-57.65c-3.99-18.43-9.98-37.08-22-51.94
		c-9.95-12.72-24.7-21.32-40.44-24.6C179.74,323.015,158.49,325.635,140.08,334.025 M44.95,329.205c-4.47,3.19-5.26,9.31-4.72,14.39
		c1.05,9.18,5.63,17.49,10.58,25.12c3.9,6.2,8.52,11.97,14.08,16.77c6.61-11.23,14.57-21.57,23.5-31.05
		c-2.95-5.12-6.68-9.7-10.84-13.87c-5.31-4.9-10.66-10.41-17.84-12.38C54.92,326.825,49.28,326.205,44.95,329.205 M513.43,431.675
		c2.76,10.1,5.6,20.31,10.02,29.81c2.05,7.42,5.5,14.33,8.53,21.38c7.49,16.14,16.06,31.87,26.45,46.35
		c3.77-1.78,7.57-3.53,11.43-5.13c5.75-2.41,11.92-3.51,17.85-5.35c-2.62-4.29-4.2-9.23-7.35-13.16c-1.54-6.6-4.07-12.9-5.68-19.47
		c-0.9-4.83-5.63-7.04-9.11-9.8C547.41,462.375,530.05,447.415,513.43,431.675 M1264.97,464.145c-4.38,6.72-7.17,14.39-8.74,22.23
		c-1.06,4.37-1.84,8.81-2,13.31c11.19-1.92,22.69-2.8,33.91-0.49c0.53-3.94,1.04-7.89,0.93-11.87c0.76-7.61-1.77-15.31-5.99-21.6
		c-2.18-3.12-5.04-6.28-8.96-6.99C1270.24,458.215,1266.98,461.155,1264.97,464.145 M580.09,487.505c1.09,3.68,1.49,7.92,4.1,10.9
		c2.68,10.38,8.76,19.5,15.03,28.06c-12.79,0.85-25.63,2.58-37.75,6.88c11.06,15.95,24.42,30.22,38.57,43.46
		c25.89,23.87,55.62,43.37,87.21,58.83c25.57,12.32,52.01,23.05,79.46,30.42c21.68,5.71,44.08,9.15,66.54,8.65
		c18.08-0.91,36.6-2.6,53.42-9.79c11.28-4.82,21.81-13.7,25.05-25.95l0.66-0.1c1.93-7.76,1.28-15.89-1.45-23.38
		c-6.71,2.67-12.85,6.55-19.63,9.07c-31.51,12.99-67.08,13.05-99.82,4.87c-19.82-4.62-39.18-11.15-57.92-19.05
		c-11.7-4.69-22.77-10.73-34.29-15.78c-6.25-4.26-13.29-7.23-19.69-11.26c-14.12-8.42-28.42-16.75-41.4-26.86
		c24.76,13.69,50.11,26.43,76.57,36.55c27.03,10.45,54.81,19.01,83.14,25.16c36.17,7.62,74.44,3.42,108.51-10.7
		c-0.41-1.07-0.8-2.14-1.18-3.19l-0.8,0.13c-2.35-4.1-4.96-8.21-8.63-11.24c-1.45-0.41-2.97-0.39-4.43-0.42
		c-59.52,0.94-118.84-10.94-174.43-31.89c-34.82-12.99-68.35-29.43-99.95-48.97C604.33,504.305,592.35,495.685,580.09,487.505
		 M1352.02,491.305c-7.48,3.51-13.55,9.33-19.03,15.39c-2.56,2.81-4.94,5.78-7.07,8.93c2.41,2.02,4.83,4.04,7.38,5.92
		c8.3,6.14,15.2,13.9,22.14,21.49c3.26-4.92,5.89-10.19,8.59-15.42c4.39-7.44,9.15-15.25,9.74-24.08
		c0.63-6.18-3.95-11.91-9.65-13.78C1360.07,488.545,1355.74,489.535,1352.02,491.305 M1224.36,522.605
		c-13.3,8.75-25.55,18.99-37.25,29.74c-28.04,25.98-52.54,55.44-79.99,82.01c-13.01,12.39-26.48,24.3-40.61,35.4
		c-5.31,4.46-11.32,8.02-16.42,12.73c-5.01,2.39-9.15,6.2-13.94,8.97c-9.03,5.88-18.57,10.86-27.95,16.11
		c-0.21,7.22-1.16,14.48-0.55,21.69c-0.77,8.28-0.14,16.59,0.17,24.87c1.19,24.79,4.66,49.55,11.54,73.43
		c4.83,16.1,9.13,32.66,17.99,47.14c8.61-0.32,17.04-2.24,25.52-3.67c50.85-9.93,99.51-29.66,144.09-55.88
		c32.58-19.1,63.74-40.79,91.97-65.92c22.15-20.08,42.82-42.47,57.23-68.86c10.28-18.74,17.1-39.81,16.63-61.36
		c-0.48-16.13-4.41-32.41-12.47-46.45c-5.06-11.43-13.06-21.39-21.45-30.56c-3.96-3.77-7.54-8.21-12.38-10.84
		c-14.44-12.55-33.11-20.41-52.21-21.85C1256.74,507.915,1239.05,513.085,1224.36,522.605 M1393.89,567.355
		c-6.54,1.9-12.87,4.53-18.61,8.23c4.55,10.6,7.88,21.65,10.17,32.95c7.01-2.12,13.76-5.18,19.7-9.51
		c4.93-3.88,9.37-9.03,10.26-15.46c0.71-5.37-0.26-11.8-4.9-15.21C1405.58,565.015,1399.31,566.075,1393.89,567.355 M304.5,587.335
		c3.7,6.99,7.94,13.83,13.6,19.42c-0.46-4.81-1.32-9.83-4.34-13.76C311.66,589.805,307.96,588.465,304.5,587.335 M326.86,610.405
		c-0.81,26.44-12.85,50.87-27.12,72.56c-10.28,15.39-21.42,30.23-33.61,44.16c-2.94,2.81-5.85,5.64-8.82,8.4
		c-4.27,3.98-9.37,6.88-14.25,10.01c7.53,7.46,16.59,13.16,25.66,18.55c2.01,0.89,4.37,3.04,6.54,1.36
		c6.38-4.18,12.03-9.42,17.31-14.91c7.47-7.23,13.75-15.58,19.54-24.18c8.52-12.62,14.69-26.6,22.1-39.87
		c8.42-16.2,17.48-32.51,21.08-50.6c-7.36-6.05-14.81-12.03-21.38-18.95C331.7,614.605,329.3,612.475,326.86,610.405
		 M360.52,640.305c-7.88,28.13-20.9,54.53-36.01,79.43c-7.46,12.73-16.39,24.54-26.35,35.41c-5.49,5.22-11.28,10.09-17.27,14.72
		c1.5,0.82,2.95,1.74,4.45,2.58c19.63,8.82,39.58,16.94,59.84,24.23c7,2.44,13.86,5.36,21.12,6.98c1.42,0.79,2.97,1.75,4.68,1.55
		c6.85,3.15,14.19,5.02,21.34,7.37c7.88,2.29,15.57,5.25,23.63,6.88c6.56,2.75,13.61,3.93,20.28,6.37
		c-0.27,0.33-0.79,0.98-1.06,1.31c-7.62-1.13-15.18-2.58-22.76-3.93c-6.82-1.54-13.7-2.73-20.51-4.28
		c-6.37-1.37-12.61-3.28-19.07-4.21c-4.1,7.41-8.22,14.81-12.03,22.38c-16.22,31.92-27.81,66.06-36.01,100.87
		c-11.23,48.98-15.7,99.37-15.2,149.57c0.06,11.62-0.28,23.27,0.91,34.84c18.45,7.38,37.39,13.62,56.71,18.27
		c23.75,5.82,48.1,8.52,72.32,11.49c48.05,5.36,96.42,7.8,144.77,7.38c24.69-0.6,49.43-0.97,74.05-3.14
		c-2.89-18.15-6.93-36.11-9.38-54.33c-6.36-37.2-10.49-74.77-13.97-112.35c-4.11-48.81-5.57-97.82-8.32-146.7
		c-2-2.14-4.9-3.05-7.41-4.4c-26.54-13.29-48.92-34.45-64.17-59.87c-16.6-27.17-25.44-58.24-30.86-89.4
		c-11.68,0.32-23.37,1-35.03-0.04c-40.4-3.1-79.59-17.34-113.67-39.04C370.43,647.085,365.73,643.305,360.52,640.305
		 M968.68,722.845c-2.06,17.45-2.86,35.1-2.09,52.66c1.46,38.31,13.71,76.1,34.59,108.22c5.16,8.56,11.42,16.41,17.88,24.03
		c1.49,1.47,2.94,3.71,5.34,3.5c8.79-0.32,17.47-2.38,25.83-5.05c-4.57-3.59-9.48-6.9-13.12-11.5c-2.23-2.82-4.27-5.76-6.34-8.68
		c-8.29-14.61-12.74-30.92-16.88-47.08c-10.48-42.28-12.69-86.25-9.47-129.58C992.74,714.465,980.94,719.275,968.68,722.845
		 M224.44,721.605c0.86,5.85,2.26,12.89,8.01,15.87c6.09,2.37,12.14-1.84,16.76-5.45C240.81,728.885,232.69,725.095,224.44,721.605
		 M941.59,728.885c-6.18,3.01-11.68,7.33-18.15,9.82c-30.78,13.49-65.06,13.64-98.05,14.82c8.08,9.64,15.51,19.79,23.44,29.54
		c7.2,9.74,14.72,19.24,21.97,28.94c4.37,5.31,7.81,11.4,12.74,16.22c3.68,6.76,8.97,12.43,13.29,18.77
		c10.51,14.59,21.46,28.94,30.38,44.6c1.38,2.17,2.61,4.83,5.21,5.77c24.09,8.55,49.47,13.52,75.05,14.12
		c-5.9-7.52-11.94-14.97-16.88-23.17c-1.91-2.74-2.9-6.32-5.47-8.47c-0.7-1.94-1.43-3.86-2.32-5.7
		c-8.98-17.32-15.14-36.05-18.85-55.18c-3.9-21.22-4.72-42.93-3.59-64.45c0.24-7.8,1.53-15.51,1.81-23.29
		c0.89-2.16,0.9-4.55,1.25-6.82C956.16,725.985,948.78,727.085,941.59,728.885 M788.23,753.345c-0.24,7.83-0.98,15.67-2.94,23.28
		c-7.31,20.49-19.39,39.72-36.64,53.26c-12.32,9.55-26.52,16.64-41.53,20.84c0.21,6.97,1.28,13.87,1.96,20.81
		c2.87,24.66,5.98,49.3,9.34,73.9c6.22,47.11,13.24,94.13,22.94,140.66c4.83,20.13,9.24,40.37,13.98,60.53
		c7.64-0.58,15.15-2.1,22.71-3.26c39.18-6.23,77.99-15.3,115.37-28.68c33.48-12.08,65.76-27.43,96.57-45.21
		c-9.89-28.33-21.51-56-33.11-83.66c-16.84-38.95-34.22-78.13-59.22-112.67c-21.96-29.67-41.59-60.96-62.38-91.43l-0.87-0.04
		c-1.48-3.14-3.32-6.1-5.43-8.84c-4.32-5.7-8.29-11.66-12.68-17.29c-1.47-2.42-4.57-1.92-6.96-2.06
		C802.3,753.635,795.27,753.295,788.23,753.345 M632.02,844.735c0.19,16.68,2.37,33.24,3.6,49.85c2.32,26.91,4.44,53.85,7.14,80.73
		c3.95,42.29,10.33,84.32,17.53,126.17c2.99,17.99,5.54,36.08,9.1,53.97c13.33-0.5,26.58-2.15,39.87-3.23
		c10.62-1.22,21.3-1.99,31.86-3.7c-4.05-18.01-7.74-36.12-10.4-54.39c-0.43-1.55-0.23-3.47-1.41-4.64
		c-0.22-7.38-2.12-14.55-3.19-21.82c-4.35-24.81-8.2-49.7-11.35-74.69c-6.02-46.73-9.17-93.76-12.66-140.73
		c-9.8,1.52-19.69,2.67-29.63,1.92C658.54,853.565,644.94,849.845,632.02,844.735 M1051.09,890.245c5.08,4.92,12.65,7.59,19.61,5.57
		c6.99-2.08,12.06-7.76,16.52-13.23C1075.16,885.075,1063.25,888.265,1051.09,890.245 M894.4,1132.575
		c-37.99,12.95-77.25,21.9-116.82,28.37c-50,8.19-100.61,12.26-151.22,13.88c-11.01,0.81-22.05,0.64-33.08,0.87
		c-16.33,0.88-32.69,0.41-49.03,0.46c-11.38-0.75-22.79-0.33-34.15-1.19c-44.16-1.98-88.33-7.08-131.25-17.88
		c-17.96-4.29-35.41-10.39-52.72-16.72c-0.12,11.45,1.92,22.77,3.15,34.13c5.81,45.2,17.28,89.54,32.73,132.37
		c12.17,35.07,26.93,69.2,43.7,102.32c12.76,1.87,25.68,2.13,38.52,3.14c15.43,0.49,30.89,2.14,46.32,1.15l0.47,0.62
		c37.72,0.92,75.45-1.74,112.93-5.83c0.21-8.65,0.61-17.32,2.3-25.81c3.53-19.61,12.48-38.28,25.93-53.01
		c1.35-1.61,2.83-3.16,3.64-5.12c4.19-2.42,7.36-6.13,11.1-9.13c14.4-11.54,30.78-20.43,47.95-27.09
		c38.17-14.87,79.73-19.89,120.48-17.47c34.16,2,68.7,9.79,98.26,27.61c15.87,9.57,29.71,22.22,41.59,36.38
		c10.16,12.16,18.16,25.91,25.34,39.98c22.48-5.4,44.81-11.61,66.53-19.58c19.21-7.42,37.77-16.92,53.93-29.79
		c15.97-12.59,31.49-25.78,46.15-39.89c5.79-5.55,11.82-10.85,17.17-16.84c-20.8-33.15-43.6-65.15-69.25-94.76
		c-23.44-26.98-49.17-51.98-76.76-74.69c-6.69-5.85-13.58-11.49-20.83-16.61C965.33,1103.255,930.78,1120.515,894.4,1132.575
		 M1117.22,1329.395c-13.29,10.83-27.37,20.85-42.86,28.3c-16.59,8.13-34.01,14.39-51.6,19.95c3.8,13.13,6.18,26.65,7.09,40.3
		c1.74,28.54-1.25,57.05-2.33,85.55c-0.61,20.57-1.07,41.67,5.18,61.54c4.1,13.66,12.06,25.94,22.31,35.8
		c15.66,16.76,37.08,26.72,58.7,33.36c38.06,11.34,79.5,10.3,117.16-2.15c34.67-11.45,67.98-29.94,91.91-58.01
		c4.34-5.5,9.04-10.94,11.58-17.57c4.44-5.82,6.88-12.87,9.12-19.76c1.72-6.15,3.48-12.44,3.47-18.86
		c1.79-12.71-0.48-25.8-5.44-37.57c-12.35-28.33-40.55-49.07-71.28-52.4c-17.74-1.49-35.37,2.95-52.03,8.63
		c-8.86,3.43-17.94,6.6-26.07,11.6c-1.62,0.21-3.08,0.99-4.5,1.72c-8.86,4.75-17.68,9.59-26.34,14.69
		c-6.1,3.36-11.8,7.45-18.23,10.19c4.3-4.3,9.51-7.46,14.39-11.01c14.39-10.33,29.59-19.47,45.14-27.93
		c7.74-4.24,16.07-7.18,24.02-10.97c-17.63-15.59-33.51-33.01-48.37-51.23c-11.77-13.62-20.53-29.45-28.72-45.39
		c-2.75-6.55-5.85-12.95-8.51-19.53C1132.89,1315.335,1125.41,1322.775,1117.22,1329.395 M421.6,1426.815
		c0.92,15.32,0.83,30.69-0.46,45.99c-1.19,8.8-2.28,17.63-4.2,26.32c-1.47,7.14-3.77,14.06-5.53,21.13
		c13.58-0.42,27.23,0.53,40.45,3.83c21.33,4.99,41.24,14.44,60.78,24.12c6.77,3.6,14.18,6.28,19.97,11.48
		c-8.38-2.21-16.06-6.34-24.2-9.22c-6-2.04-11.7-5.11-17.94-6.31c-8.52-3.73-17.61-5.9-26.59-8.14
		c-18.76-4.51-38.42-5.73-57.46-2.33c-32.61,5.06-65.05,15.51-92.12,34.81c-15.03,10.95-28.35,25.08-35.71,42.35
		c-6.56,14.76-6.54,32.61,1.57,46.77c4.36,7.39,9.28,14.83,16.21,20.06c1.67,2.85,4.52,4.72,7.04,6.75
		c16.05,12.4,35.13,20.35,54.68,25.33c6.61,1.52,13.2,3.42,20,3.87c9.78,2.26,19.85,2.69,29.84,3.37
		c42.77,1.64,86.19-3.46,126.51-18.25c27.2-10.09,53.29-25.64,71.07-49.02c10.67-14.06,17.73-30.98,19.31-48.61
		c1.76-19.47-2.67-38.88-8.82-57.23c-7.24-21.95-17.16-42.91-24-64.99c-5.05-16.41-8.62-33.32-10.02-50.44
		c-4.24,0.17-8.47,0.42-12.67,1.02C520.15,1434.415,470.69,1430.855,421.6,1426.815z"/>
	<path fill="#E58E38" stroke="#E58E38" d="M862.72,67.035c12.68-8.01,27.42-13.45,42.57-13.25c15.22-0.14,30.11,6.27,41.18,16.58
		c0.96,0.96,1.92,1.98,2.57,3.21c5.47,14.36,9.71,29.47,9.43,44.97c0.18,17.67-5.34,34.97-13.75,50.36
		c-6.76,12.94-16.46,24.09-26.93,34.14c-4.87,4.16-9.22,8.84-13.58,13.5c-2.7,2.39-5.96,3.98-9.11,5.67
		c2.3-0.04,4.95-0.12,6.41,2.05c8.53,9.8,17.69,19.11,27.81,27.29c2.17,1.78,4.62,3.36,6.19,5.77c3.96,7.11,10.4,12.26,16.24,17.76
		c30.44,26.93,69.17,42.38,108.28,51.72c21.7,5.38,44.04,7.61,65.68,13.29c14.16,3.77,28.13,9.24,39.94,18.08
		c5.55,4.1,10.34,9.23,13.94,15.13c4.53,6.89,6.63,14.96,9.18,22.71c-0.01,6.35-2.72,12.39-4.64,18.37
		c-5.46,13.56-12.28,26.86-21.74,38.07c-6.14,5.59-11.85,11.61-17.87,17.32c-24.39,21.92-53.8,37.22-83.59,50.41
		c-33.84,14.55-68.65,27.52-105.03,34.01c-22.6,4.27-45.61,6.16-68.6,6.29c-28.81-0.63-57.51-3.77-86.01-7.92
		c-54.86-8.16-109-21.91-160.56-42.45c-7.93-3.07-15.57-6.81-23.59-9.64c-4.75-1.93-9.02-4.8-13.39-7.44
		c-18.35-11.31-35.99-23.75-53.13-36.82c-11.75-9.25-23.76-18.25-34.67-28.48c4.24-4.47,8.35-9.32,10.2-15.32
		c5.01-15.44,3.22-31.9,2.82-47.84c-0.13-1.82-0.68-3.57-1.11-5.33c-2.57,12.39-1.93,25.27-5.32,37.53
		c-2.59,11.23-9.35,21.95-19.84,27.26c-9.31,4.63-20.26,3.76-30.02,1.16c-7.12-1.72-13.68-5.02-20.5-7.59
		c9.85,8.16,21.58,14.55,34.33,16.52c6.9,1.14,13.84-0.15,20.6-1.53c7.91,35.58,21.57,70,41.54,100.56
		c30.58,47.46,75.12,84.68,124.29,111.76c28.59,15.67,59,28,90.47,36.55c18.9,5.22,38.33,8.66,57.93,9.79
		c20.91,1.18,42.26-0.48,62.13-7.46c13.95-4.96,27.84-12.08,36.96-24.12c5.33-6.67,8.09-14.94,9.31-23.3
		c10.28,5.09,18.97,13.4,23.92,23.81c4.2,8.07,4.83,17.65,2.74,26.42c-1.96,8.4-6.75,15.73-11.29,22.93
		c-3.59,4.74-8.75,7.94-13.6,11.23c-16.77,10.67-36.02,16.54-55.29,20.76c-55.49,11.95-113.03,9.26-168.84,0.98
		c-8.44-1.12-16.74-3.21-25.25-3.79c7.32,2.62,15.05,3.69,22.63,5.27c1.78,0.41,3.64,0.78,5.2,1.82
		c8.26,6.34,17.46,11.56,27.41,14.72c4.86,1.53,9.78,2.86,14.7,4.21c-9.13,15.81-22.26,30.08-39.38,37.21
		c-14.43,6.62-30.8,7.87-46.39,5.68c-31.32-4.2-61.34-17.28-85.85-37.21c-13.92-11.02-26.32-23.94-36.74-38.3
		c-2-2.68-4.25-5.17-6.34-7.78c-2.1-2.87-3-6.38-4.1-9.7c-2.58-8.48-4.98-17.06-6.05-25.87c21.62,12.21,44.92,21.18,68.74,28.06
		c6.81,1.78,13.45,4.61,20.58,4.81c-4.41-3.27-9.88-4.34-14.82-6.52c-9.12-3.63-17.96-7.91-26.73-12.33
		c-1.64-0.87-3.27-1.81-4.58-3.13c-9.82-10.59-21.05-19.76-31.38-29.84c-27.11-25.02-53.83-51.48-72.21-83.81
		c-17.54-30.01-27.71-63.78-32.98-98c-2.58-16.02-3.56-32.23-4.44-48.41c-0.58-23.03-0.89-46.11,1.09-69.08
		c0.77-9.96,1.22-19.94,1.99-29.89c0.92-0.6,1.84-1.19,2.77-1.78c-8.45,0.49-17.23,1.74-25.51-0.55
		c-15.42-7.92-30.39-17.16-42.74-29.45c-11.9-11.46-21.41-25.52-26.89-41.15c-5.67-15.69-5.3-33.14-0.77-49.07
		c6.13-22.12,19.21-42.62,38.12-55.92c4.74-2.7,10.25-3.55,15.54-4.55c14.57-2.55,29.82,0.13,42.93,6.87
		c15.96,8.22,28.8,21.75,37.79,37.16c3.78,6.17,6.18,13.02,9.23,19.56c25.88-34.86,56.92-65.55,89.82-93.75
		c7.81-6.52,16.13-12.44,23.51-19.47c4.32-3.97,7.88-8.65,11.76-13.03c2.93,17.21,2.26,34.81,0.64,52.12
		c-1.13,12.79-3.24,25.5-6.39,37.95c-1.43,5.86-3.85,11.45-4.87,17.42c5.34-4.58,6.69-11.88,10.94-17.24
		c2.68-3.03,5.59-5.88,7.93-9.2c5.97-8.2,9.33-17.88,12.72-27.35c1.87-5.1,3.05-10.41,4.52-15.63c0.98-2.13,2.66-3.83,4.2-5.58
		c11.69-12.68,22.04-26.69,29.78-42.15c3.13-5.95,5.46-12.26,8.37-18.32c3.85,21.35,2.58,43.24,0.02,64.67
		c-1.84,13.94-4.23,28.06-10.07,40.97c-0.9,2.08-1.24,4.35-1.58,6.58c6.56-3.94,9.28-11.49,14.2-16.98
		c11.59-10.49,21.28-22.92,29.94-35.87c35.4-1.81,71.3-0.7,105.84,7.92c3.03-10.67,6.86-21.17,12.71-30.65
		C835.89,89.315,848.17,76.465,862.72,67.035 M871.32,68.565c-13.21,7.31-23.05,19.3-31.12,31.81c-4.38,7.8-9.21,15.48-11.8,24.11
		c13.1-14.62,27.59-28.39,44.98-37.79c11.89-6.37,25.35-10.26,38.94-9.25c8-0.06,15.39,3.21,23.04,5.03
		c-5.34-10.44-15.51-18.71-27.17-20.85C895.6,59.005,882.34,62.285,871.32,68.565 M876.08,102.315
		c-13.52,11.55-23.35,27.57-26.98,45.03c-0.83,3.5-0.8,7.11-0.49,10.67l0.23-0.82c8.75,6.34,17.38,13.13,23.92,21.83
		c2.08,3,4,6.1,6.11,9.07c-0.32,0.23-0.96,0.69-1.28,0.91c3.96-0.33,7.82-1.38,11.6-2.59c14.69-4.63,28.65-12.42,39.17-23.82
		c10.15-10.62,15.77-25.36,15.25-40.04c-0.25-7.69-2.41-15.75-8-21.31c-7.41-7.41-17.78-12.07-28.34-11.76
		C895.68,89.485,884.8,94.995,876.08,102.315 M743.23,185.525c-7.93,12.09-12.14,26.86-10.86,41.32c1.19-3.35,2.17-6.76,3.02-10.22
		c3.23-9.99,8.72-19.36,16.33-26.66c7.74-7.52,18.34-12.62,29.3-12.01c14.29,0.91,27.69,6.83,39.86,14.06
		c4.09,2.55,8.01,5.4,12.34,7.58c-6.35-7.92-13.99-14.73-21.68-21.32c-10.36-8.52-23.22-16.36-37.19-14.43
		C761.43,166.035,750.41,174.845,743.23,185.525 M387.22,173.115c5.66,0.6,11.39,1.03,16.89,2.59c16.79,4.62,31.77,14.8,43.34,27.69
		c7.27,7.81,12.29,17.25,17.39,26.52c2.4-4.87,1.48-10.49,0.82-15.66c-2.86-16.7-15.46-30.39-30.43-37.53
		C420.53,169.455,402.77,167.135,387.22,173.115 M403.85,203.145c-22.28,1.22-41.66,22.01-40.85,44.4
		c0.46,17.99,10.63,36.12,26.98,44.24c14.6,7.35,31.46,7.81,47.43,6.57c1.19,0.01,2.15-0.66,3.04-1.37
		c-0.7-7.12,0.37-14.29,2.06-21.2c1.93-7.98,4.55-15.89,8.76-22.97c1.89-2.7,0.21-5.76-0.7-8.47c-3.85-10.15-7.81-20.68-15.4-28.7
		C427.25,207.125,415.44,202.525,403.85,203.145 M554.46,229.725c-11.1,4.19-18.76,14.36-22.65,25.24
		c-6.12,17.21-6.01,35.83-5.1,53.84c2.27-12.84,2.7-26.13,7.42-38.43c3.1-7.84,6.79-16.05,13.78-21.2
		c8.13-6.08,18.41-8.44,28.38-9.22c17.36-1.18,34.63,3.28,50.23,10.7c-7.12-8.7-17.13-14.58-27.37-18.89
		C585.11,226.185,568.83,224.305,554.46,229.725 M793.47,248.745c-11.99,9.85-17.07,25.7-18.09,40.72
		c-0.48,9.86-0.23,20.13,3.55,29.39c0.08-5.73-0.58-11.5,0.37-17.19c1.77-12.78,8.82-24.27,17.72-33.39
		c5.53-5.89,13.03-10.33,21.26-10.7c11.05-0.59,21.51,4.4,30.35,10.6c4.74,3.2,8.63,7.49,13.53,10.47
		c-1.98-5.12-4.81-9.84-7.2-14.76c-3.02-6-6.2-12.22-11.56-16.47c-4.79-3.73-10.51-6.22-16.43-7.52
		C815.21,237.405,802.75,241.405,793.47,248.745 M633.11,306.425c-8.37,4.92-13.38,14.44-13.69,24.03
		c-0.64,13.95,4.76,27.38,11.9,39.1c3.69,5.58,7.56,11.26,13.05,15.24c-2.82-6.63-6.54-12.87-8.52-19.83
		c-3.57-11.17-6.05-23.88-1.1-35.02c3.14-7.22,10.88-11.41,18.55-11.65c15.36-0.8,30.69,3.74,44.08,11.1
		c5.63,2.96,10.43,7.21,15.94,10.38c-2.95-6.13-7.59-11.17-12.05-16.21c-9.36-10.17-20.91-19.05-34.59-22.28
		C655.39,298.475,643.1,300.545,633.11,306.425 M1094.9,352.235c-12.48,2.67-24.98,7.61-34.23,16.67
		c-6.46,6.15-10.22,14.71-11.34,23.47c-3.86,8.77-3.79,18.89-2.09,28.17c2.1,10.78,9.65,19.37,17.97,26.06
		c9.71,7.36,21.98,10.99,34.11,10.85c15.36-0.37,30.93-5.11,42.9-14.97c12.36-9.71,21.9-23.55,24.8-39.15
		c2.04-11.84-1.06-24.45-8.65-33.8c-1.77-7.64-6.91-14.55-14.08-17.9c-7.68-3.95-16.56-3.67-24.94-3.41
		C1111.04,348.425,1103.02,350.725,1094.9,352.235z"/>
	<path fill="#F5B071" stroke="#F5B071" d="M871.32,68.565c11.02-6.28,24.28-9.56,36.87-6.94c11.66,2.14,21.83,10.41,27.17,20.85
		c-7.65-1.82-15.04-5.09-23.04-5.03c-13.59-1.01-27.05,2.88-38.94,9.25c-17.39,9.4-31.88,23.17-44.98,37.79
		c2.59-8.63,7.42-16.31,11.8-24.11C848.27,87.865,858.11,75.875,871.32,68.565z"/>
	<path fill="#CE690D" stroke="#CE690D" d="M949.04,73.575c5.7,4.17,9.51,10.29,13.09,16.25c9.52,16.75,11.15,36.89,8.1,55.63
		c-2.36,13.34-7.16,26.6-15.93,37.11c-8.21,9.95-19.02,17.38-30.1,23.81c-6.59,3.53-12.95,7.58-19.99,10.17
		c4.36-4.66,8.71-9.34,13.58-13.5c10.47-10.05,20.17-21.2,26.93-34.14c8.41-15.39,13.93-32.69,13.75-50.36
		C958.75,103.045,954.51,87.935,949.04,73.575z"/>
	<path fill="#693A0C" stroke="#693A0C" d="M876.08,102.315c8.72-7.32,19.6-12.83,31.19-12.83c10.56-0.31,20.93,4.35,28.34,11.76
		c5.59,5.56,7.75,13.62,8,21.31c0.52,14.68-5.1,29.42-15.25,40.04c-10.52,11.4-24.48,19.19-39.17,23.82
		c-3.78,1.21-7.64,2.26-11.6,2.59c0.32-0.22,0.96-0.68,1.28-0.91c7.61-4.52,16.11-7.47,23.44-12.54c8.9-5.9,17-13.38,22.45-22.65
		c5.84-9.38,10.98-20.02,10.47-31.34c-0.34-9.42-6.79-18.11-15.57-21.41c-16.42-6.01-35.39,0.23-47.34,12.42
		c-13.08,11.39-19.58,28.15-23.48,44.62l-0.23,0.82c-0.31-3.56-0.34-7.17,0.49-10.67C852.73,129.885,862.56,113.865,876.08,102.315z
		"/>
	<path fill="#E9A15E" stroke="#E9A15E" d="M872.32,112.575c11.95-12.19,30.92-18.43,47.34-12.42c8.78,3.3,15.23,11.99,15.57,21.41
		c0.51,11.32-4.63,21.96-10.47,31.34c1.65-8.96,3.36-18.75-0.36-27.41c-3.74-8.46-12.82-12.61-21.26-14.84
		C892.96,107.965,882.24,109.605,872.32,112.575z"/>
	<path fill="#FFFFFE" stroke="#FFFFFE" d="M619.65,107.455c1.28,8.79-0.48,17.77,1.23,26.51c-0.49,0.41-0.97,0.82-1.44,1.24
		C619.98,125.975,619.82,116.705,619.65,107.455z"/>
	<path fill="#FFFFFE" stroke="#FFFFFE" d="M689.68,122.425c0.07-4.74,0.09-9.48,0.26-14.22c0.23,4.38,0.19,8.76,0.31,13.13
		c0.83,0.15,2.49,0.43,3.32,0.57C692.27,122.075,690.97,122.255,689.68,122.425z"/>
	<path fill="#F4BF8E" stroke="#F4BF8E" d="M872.32,112.575c9.92-2.97,20.64-4.61,30.82-1.92c8.44,2.23,17.52,6.38,21.26,14.84
		c3.72,8.66,2.01,18.45,0.36,27.41c-5.45,9.27-13.55,16.75-22.45,22.65c-7.33,5.07-15.83,8.02-23.44,12.54
		c-2.11-2.97-4.03-6.07-6.11-9.07c-6.54-8.7-15.17-15.49-23.92-21.83C852.74,140.725,859.24,123.965,872.32,112.575z"/>
	<path fill="#F6F3F0" stroke="#F6F3F0" d="M814.4,124.215c0.18-0.11,0.53-0.32,0.71-0.43l-0.21,0.47L814.4,124.215z"/>
	<path fill="#CE690D" stroke="#CE690D" d="M688.9,128.985c6.42-1.32,12.97-1.61,19.49-2.1c-8.66,12.95-18.35,25.38-29.94,35.87
		c1.72-5.1,4.25-9.87,6-14.96C686.61,141.705,687.77,135.325,688.9,128.985z"/>
	<path fill="#CE690D" stroke="#CE690D" d="M620.47,145.745c4.35-4.06,8.24-8.64,13.06-12.18c-1.47,5.22-2.65,10.53-4.52,15.63
		c-3.39,9.47-6.75,19.15-12.72,27.35c-2.34,3.32-5.25,6.17-7.93,9.2c2.24-8.66,5.95-16.89,7.45-25.76
		C617.13,155.215,616.47,149.335,620.47,145.745z"/>
	<path fill="#CE690D" stroke="#CE690D" d="M367.57,166.755c3.11-1.76,6.47-3.03,9.89-4.05c-18.91,13.3-31.99,33.8-38.12,55.92
		c-4.53,15.93-4.9,33.38,0.77,49.07c5.48,15.63,14.99,29.69,26.89,41.15c12.35,12.29,27.32,21.53,42.74,29.45
		c-7.25,0.19-14.25-1.95-21.11-4.03c-15.35-5.03-29.76-13.36-41.13-24.92c-13.24-13.02-22.37-30.21-25.38-48.56
		c-2.66-17.96-0.36-36.69,7.15-53.26C337.13,190.245,350.93,175.815,367.57,166.755z"/>
	<path fill="#693A0C" stroke="#693A0C" d="M743.23,185.525c7.18-10.68,18.2-19.49,31.12-21.68c13.97-1.93,26.83,5.91,37.19,14.43
		c7.69,6.59,15.33,13.4,21.68,21.32c-4.33-2.18-8.25-5.03-12.34-7.58c-12.17-7.23-25.57-13.15-39.86-14.06
		c-10.96-0.61-21.56,4.49-29.3,12.01c-7.61,7.3-13.1,16.67-16.33,26.66c-0.85,3.46-1.83,6.87-3.02,10.22
		C731.09,212.385,735.3,197.615,743.23,185.525z"/>
	<path fill="#F5B071" stroke="#F5B071" d="M387.22,173.115c15.55-5.98,33.31-3.66,48.01,3.61c14.97,7.14,27.57,20.83,30.43,37.53
		c0.66,5.17,1.58,10.79-0.82,15.66c-5.1-9.27-10.12-18.71-17.39-26.52c-11.57-12.89-26.55-23.07-43.34-27.69
		C398.61,174.145,392.88,173.715,387.22,173.115z"/>
	<path fill="#693A0C" stroke="#693A0C" d="M403.85,203.145c11.59-0.62,23.4,3.98,31.32,12.5c7.59,8.02,11.55,18.55,15.4,28.7
		c0.91,2.71,2.59,5.77,0.7,8.47c-6.74-12.1-12.97-25.48-24.92-33.38c-3.93-2.54-8.29-4.57-12.92-5.43
		c-8.97-1.31-18.51-0.33-26.52,4.13c-7.28,3.94-13.08,10.77-15.15,18.85c-2.77,10.94-1.94,23.19,4.13,32.92
		c9.55,15.23,27.34,23.11,44.57,25.69c6.56,1.5,13.31,1.3,19.99,1.39c-0.89,0.71-1.85,1.38-3.04,1.37
		c-15.97,1.24-32.83,0.78-47.43-6.57c-16.35-8.12-26.52-26.25-26.98-44.24C362.19,225.155,381.57,204.365,403.85,203.145z"/>
	<path fill="#EAE4DF" stroke="#EAE4DF" d="M483.91,205.765c0.08-0.08,0.23-0.25,0.31-0.33
		C484.14,205.515,483.99,205.685,483.91,205.765z"/>
	<path fill="#C7B5A4" stroke="#C7B5A4" d="M481.02,205.935c0.6,0.09,1.82,0.27,2.43,0.36C482.93,207.645,481,207.475,481.02,205.935
		z"/>
	<path fill="#E9A15E" stroke="#E9A15E" d="M386.91,218.135c8.01-4.46,17.55-5.44,26.52-4.13c-6.64,1.05-11.64,5.95-15.89,10.79
		c-8.87,10.35-11.78,25.62-6.96,38.44c2.63,7.05,7.39,13.09,12.57,18.46c5.33,5.15,11.57,9.23,17.31,13.9
		c-17.23-2.58-35.02-10.46-44.57-25.69c-6.07-9.73-6.9-21.98-4.13-32.92C373.83,228.905,379.63,222.075,386.91,218.135z"/>
	<path fill="#F4BF8E" stroke="#F4BF8E" d="M397.54,224.795c4.25-4.84,9.25-9.74,15.89-10.79c4.63,0.86,8.99,2.89,12.92,5.43
		c11.95,7.9,18.18,21.28,24.92,33.38c-4.21,7.08-6.83,14.99-8.76,22.97c-1.69,6.91-2.76,14.08-2.06,21.2
		c-6.68-0.09-13.43,0.11-19.99-1.39c-5.74-4.67-11.98-8.75-17.31-13.9c-5.18-5.37-9.94-11.41-12.57-18.46
		C385.76,250.415,388.67,235.145,397.54,224.795z"/>
	<path fill="#FFFFFE" stroke="#FFFFFE" d="M906.41,218.985c0.34-0.21,1-0.64,1.33-0.86l0.39,0.73c-0.36,0.21-1.07,0.62-1.43,0.82
		L906.41,218.985z"/>
	<path fill="#693A0C" stroke="#693A0C" d="M554.46,229.725c14.37-5.42,30.65-3.54,44.69,2.04c10.24,4.31,20.25,10.19,27.37,18.89
		c-15.6-7.42-32.87-11.88-50.23-10.7c-9.97,0.78-20.25,3.14-28.38,9.22c-6.99,5.15-10.68,13.36-13.78,21.2
		c-4.72,12.3-5.15,25.59-7.42,38.43c-0.91-18.01-1.02-36.63,5.1-53.84C535.7,244.085,543.36,233.915,554.46,229.725z"/>
	<path fill="#693A0C" stroke="#693A0C" d="M793.47,248.745c9.28-7.34,21.74-11.34,33.5-8.85c5.92,1.3,11.64,3.79,16.43,7.52
		c5.36,4.25,8.54,10.47,11.56,16.47c2.39,4.92,5.22,9.64,7.2,14.76c-4.9-2.98-8.79-7.27-13.53-10.47
		c-8.84-6.2-19.3-11.19-30.35-10.6c-8.23,0.37-15.73,4.81-21.26,10.7c-8.9,9.12-15.95,20.61-17.72,33.39
		c-0.95,5.69-0.29,11.46-0.37,17.19c-3.78-9.26-4.03-19.53-3.55-29.39C776.4,274.445,781.48,258.595,793.47,248.745z"/>
	<path opacity="0.62" fill="#58432E" stroke="#58432E" enable-background="new    " d="M303.23,249.175
		c-1.94-0.66-1.95-5.58-0.01-6.23C303.29,245.015,303.29,247.095,303.23,249.175z"/>
	<path fill="#F5B071" stroke="#F5B071" d="M951.75,275.085c-5.84-5.5-12.28-10.65-16.24-17.76c6.08,3.43,11.39,8.04,17.39,11.62
		c18.15,11.78,38.42,19.92,59.19,25.79c23.2,6.59,46.97,10.82,70.6,15.55c14.6,2.94,29.26,5.83,43.47,10.39
		c17.33,5.69,34.13,13.94,47.79,26.2c13.49,12.01,19.06,31.73,14.82,49.14c-2.55-7.75-4.65-15.82-9.18-22.71
		c-3.6-5.9-8.39-11.03-13.94-15.13c-11.81-8.84-25.78-14.31-39.94-18.08c-21.64-5.68-43.98-7.91-65.68-13.29
		C1020.92,317.465,982.19,302.015,951.75,275.085z"/>
	<path fill="#F5D68A" stroke="#F5D68A" d="M124.42,283.695c3.07-4.5,7.28-9.15,13.02-9.73c5.28-0.02,9.54,3.96,12.38,8.04
		c4.26,6.33,7.27,13.74,7.79,21.38c-0.1,0.7-0.3,2.09-0.4,2.79c-7.76,1.35-15.6,2.57-23.08,5.13c-5.08,1.67-10.05,3.62-15.06,5.48
		C116.92,305.625,117.85,293.285,124.42,283.695z"/>
	<path fill="#F5D68A" stroke="#F5D68A" d="M225.94,292.275c5.77-1.75,13.2-1.8,17.42,3.18c5.74,6.94,5.53,16.56,5.02,25.05
		c-7.76-3.92-15.71-7.61-24.17-9.76c-4.83-1.22-9.66-2.44-14.4-3.98C213.51,300.445,218.72,294.485,225.94,292.275z"/>
	<path fill="#693A0C" stroke="#693A0C" d="M633.11,306.425c9.99-5.88,22.28-7.95,33.57-5.14c13.68,3.23,25.23,12.11,34.59,22.28
		c4.46,5.04,9.1,10.08,12.05,16.21c-5.51-3.17-10.31-7.42-15.94-10.38c-13.39-7.36-28.72-11.9-44.08-11.1
		c-7.67,0.24-15.41,4.43-18.55,11.65c-4.95,11.14-2.47,23.85,1.1,35.02c1.98,6.96,5.7,13.2,8.52,19.83
		c-5.49-3.98-9.36-9.66-13.05-15.24c-7.14-11.72-12.54-25.15-11.9-39.1C619.73,320.865,624.74,311.345,633.11,306.425z"/>
	<path fill="#E1B045" stroke="#E1B045" d="M157.61,303.385c0.84,4.19,0.62,8.47,0.54,12.72c-12.61,2.22-24.31,7.49-35.85,12.82
		c-1.51-3.93-2.53-8.01-3.23-12.14c5.01-1.86,9.98-3.81,15.06-5.48c7.48-2.56,15.32-3.78,23.08-5.13
		C157.31,305.475,157.51,304.085,157.61,303.385z"/>
	<path fill="#E1B045" stroke="#E1B045" d="M205.25,316.535c1.3-3.35,2.85-6.61,4.56-9.77c4.74,1.54,9.57,2.76,14.4,3.98
		c8.46,2.15,16.41,5.84,24.17,9.76c-1.18,6.44-3,12.77-6.03,18.6c-4.71-4.16-8.95-8.89-14.23-12.36
		C221.22,321.915,213.29,318.875,205.25,316.535z"/>
	<path fill="#FFFFFE" stroke="#FFFFFE" d="M162.46,313.915c1.13-0.73,3.17,0.03,3.56,1.31
		C164.74,315.725,162.27,315.985,162.46,313.915z"/>
	<path fill="#F5B071" stroke="#F5B071" d="M140.08,334.025c18.41-8.39,39.66-11.01,59.49-6.77c15.74,3.28,30.49,11.88,40.44,24.6
		c12.02,14.86,18.01,33.51,22,51.94c3.82,19,5.66,38.34,7.05,57.65c1.65,24.96,1.87,50.07,5.61,74.84c0.5,3.75,1.68,7.41,1.72,11.21
		c-0.01,0.56-0.03,1.68-0.04,2.24c-6.49-6.09-10.32-14.28-13.94-22.25c-7.41-17.57-11.67-36.25-15.11-54.94
		c-3.57-17.49-5.28-35.27-8.11-52.88c-2.77-15.8-6.52-31.98-15.51-45.53c-11.85-17.79-30.03-31.3-50.56-37.32
		C162.43,333.685,151.14,333.035,140.08,334.025z"/>
	<path fill="#F5D68A" stroke="#F5D68A" d="M44.95,329.205c4.33-3,9.97-2.38,14.76-1.02c7.18,1.97,12.53,7.48,17.84,12.38
		c-10.19,8.06-19.83,17.04-26.74,28.15c-4.95-7.63-9.53-15.94-10.58-25.12C39.69,338.515,40.48,332.395,44.95,329.205z"/>
	<path fill="#E58E38" stroke="#E58E38" d="M119.58,344.855c6.48-4.16,13.08-8.57,20.5-10.83c11.06-0.99,22.35-0.34,33.04,2.79
		c20.53,6.02,38.71,19.53,50.56,37.32c8.99,13.55,12.74,29.73,15.51,45.53c2.83,17.61,4.54,35.39,8.11,52.88
		c3.44,18.69,7.7,37.37,15.11,54.94c3.62,7.97,7.45,16.16,13.94,22.25c0.01-0.56,0.03-1.68,0.04-2.24
		c1.98,5.64,2.79,11.59,4.64,17.27c3.14,10.98,8.35,21.24,14.38,30.89c-5.2,20.39-9.91,41.58-21.66,59.39
		c-6.25,9.2-13.87,17.98-23.92,23.11c-2.8,1.62-6.11,0.98-8.94-0.17c-17.94-7.27-35.55-15.63-51.68-26.38
		c-26.79-18.24-51.91-39.51-71.55-65.46c-10.64-14.06-19.86-29.36-25.98-45.96c-10.53-27.53-14.59-57.24-13.7-86.62
		c-0.19-26.6,6.17-53.19,18.6-76.72c3.92-8.51,9.38-16.14,14-24.24C112.84,349.275,116.37,347.155,119.58,344.855 M171.78,383.995
		c-11.42,0.43-22.47,4.14-32.45,9.57c-10.48,5.53-21.39,12.02-27.35,22.66c-5.74,10.01-3.61,23.26,3.93,31.73
		c5.08,6.04,12.78,9.16,20.43,10.3c12.84,1.78,25.8-0.95,38.08-4.62c9.6-3.02,19.46-6.96,26.31-14.64
		c8.76-9.21,11.91-23.72,6.59-35.44C201.29,390.175,185.9,383.395,171.78,383.995z"/>
	<path fill="#E1B045" stroke="#E1B045" d="M77.55,340.565c4.16,4.17,7.89,8.75,10.84,13.87c-8.93,9.48-16.89,19.82-23.5,31.05
		c-5.56-4.8-10.18-10.57-14.08-16.77C57.72,357.605,67.36,348.625,77.55,340.565z"/>
	<path fill="#CE690D" stroke="#CE690D" d="M426.84,341.955c1.66-1.06,3.76-0.93,5.64-1.33c-0.77,9.95-1.22,19.93-1.99,29.89
		c-1.98,22.97-1.67,46.05-1.09,69.08c0.88,16.18,1.86,32.39,4.44,48.41c5.27,34.22,15.44,67.99,32.98,98
		c18.38,32.33,45.1,58.79,72.21,83.81c10.33,10.08,21.56,19.25,31.38,29.84c-5.71-1.91-10.65-5.41-15.78-8.44
		c-56.48-34.82-102.31-87.52-126.48-149.52c-14.45-37.89-17.94-79.12-15.25-119.34c1.69-23.38,5.39-46.61,10.93-69.39
		C424.78,349.285,425.38,345.485,426.84,341.955z"/>
	<path fill="#FFFFFE" stroke="#FFFFFE" d="M245.77,344.445c-1.1-0.7-1.14-2.21,0.06-2.83l0.59,0.79
		C246.26,342.915,245.93,343.935,245.77,344.445z"/>
	<path fill="#693A0C" stroke="#693A0C" d="M1094.9,352.235c8.12-1.51,16.14-3.81,24.45-4.01c8.38-0.26,17.26-0.54,24.94,3.41
		c7.17,3.35,12.31,10.26,14.08,17.9c2.94,15.41-2.2,31.42-11.13,43.98c-9.85,13.76-26.04,21.84-42.46,24.53
		c-12.27,1.87-25.56,0.86-36.39-5.65c-8.7-5.07-14.71-14.04-17.13-23.71c-1.3-5.33-1.87-10.83-1.93-16.31
		c1.12-8.76,4.88-17.32,11.34-23.47C1069.92,359.845,1082.42,354.905,1094.9,352.235 M1116.06,355.275
		c-12.28,2.38-24.63,5.41-35.78,11.23c-4.6,2.57-9.5,5.01-13.01,9.02c-5.21,4.35-7.31,11.45-7.26,18.04
		c-0.12,6.61,3.62,12.59,8.21,17.06c9.15,8.37,21.67,12.47,33.94,12.62c14.2-0.18,26.88-8.49,35.88-18.96
		c6.43-7.44,12.6-16.79,11.06-27.12c0.61-2.92-0.68-5.82-2.06-8.33C1141.06,358.215,1127.8,353.065,1116.06,355.275z"/>
	<path fill="#E8E1D9" stroke="#E8E1D9" d="M91.38,349.845c0.46,0.03,1.39,0.09,1.85,0.12C92.52,351.245,91.9,351.195,91.38,349.845z
		"/>
	<path fill="#CE690D" stroke="#CE690D" d="M96.6,364.875c4.33-4.43,8.44-9.31,13.98-12.27c-4.62,8.1-10.08,15.73-14,24.24
		c-12.43,23.53-18.79,50.12-18.6,76.72c-0.89,29.38,3.17,59.09,13.7,86.62c6.12,16.6,15.34,31.9,25.98,45.96
		c19.64,25.95,44.76,47.22,71.55,65.46c16.13,10.75,33.74,19.11,51.68,26.38c2.83,1.15,6.14,1.79,8.94,0.17
		c10.05-5.13,17.67-13.91,23.92-23.11c11.75-17.81,16.46-39,21.66-59.39c6.16,9.1,13.52,17.29,21.35,24.97
		c-2.6,16-9.4,30.98-17.41,44.96c-7.42,12.71-15.81,24.81-24.17,36.91c-6.3,8.93-13.11,17.55-20.94,25.19
		c-7.16-2.49-13.76-6.23-20.5-9.64c-47.49-25.06-87.31-62.7-120.03-104.92c-9.86-12.97-19.65-26.06-27.87-40.16
		c-16.65-28.14-28.7-59.56-31.37-92.34c-0.58-11.61-0.64-23.33,1.24-34.83C60.75,415.495,75.58,387.155,96.6,364.875z"/>
	<path fill="#8F552B" stroke="#8F552B" d="M1116.06,355.275c11.74-2.21,25,2.94,30.98,13.56c1.38,2.51,2.67,5.41,2.06,8.33
		c-5.26,7.62-10.47,15.63-18.17,21.03c-8.46,6.38-19.1,9.36-29.61,9.5c-7.45,0.06-15.35,0.47-22.19-2.99
		c-5.45-2.64-10.22-7.43-11.35-13.54c-0.94-5.16-0.71-10.44-0.51-15.64c3.51-4.01,8.41-6.45,13.01-9.02
		C1091.43,360.685,1103.78,357.655,1116.06,355.275 M1125.71,361.895c-8.5,0.6-17.01,1.4-25.21,3.83
		c-8.05,2.37-17.5,2.94-23.54,9.45c-1.95,1.79-3,5.38-0.43,7.14c5.94,4.08,13.69,3.18,20.39,1.87c10.62-2.23,21.43-3.43,32-5.97
		c3.06-0.77,6.57-1.97,8.01-5.07c1.22-3.56,0.26-8.06-2.94-10.27C1131.62,361.005,1128.45,361.765,1125.71,361.895z"/>
	<path fill="#BB814E" stroke="#BB814E" d="M1125.71,361.895c2.74-0.13,5.91-0.89,8.28,0.98c3.2,2.21,4.16,6.71,2.94,10.27
		c-1.44,3.1-4.95,4.3-8.01,5.07c-10.57,2.54-21.38,3.74-32,5.97c-6.7,1.31-14.45,2.21-20.39-1.87c-2.57-1.76-1.52-5.35,0.43-7.14
		c6.04-6.51,15.49-7.08,23.54-9.45C1108.7,363.295,1117.21,362.495,1125.71,361.895z"/>
	<path fill="#CE690D" stroke="#CE690D" d="M1158.37,369.535c7.59,9.35,10.69,21.96,8.65,33.8c-2.9,15.6-12.44,29.44-24.8,39.15
		c-11.97,9.86-27.54,14.6-42.9,14.97c-12.13,0.14-24.4-3.49-34.11-10.85c-8.32-6.69-15.87-15.28-17.97-26.06
		c-1.7-9.28-1.77-19.4,2.09-28.17c0.06,5.48,0.63,10.98,1.93,16.31c2.42,9.67,8.43,18.64,17.13,23.71
		c10.83,6.51,24.12,7.52,36.39,5.65c16.42-2.69,32.61-10.77,42.46-24.53C1156.17,400.955,1161.31,384.945,1158.37,369.535z"/>
	<path fill="#7D471F" stroke="#7D471F" d="M1060.01,393.565c-0.05-6.59,2.05-13.69,7.26-18.04c-0.2,5.2-0.43,10.48,0.51,15.64
		c1.13,6.11,5.9,10.9,11.35,13.54c6.84,3.46,14.74,3.05,22.19,2.99c10.51-0.14,21.15-3.12,29.61-9.5
		c7.7-5.4,12.91-13.41,18.17-21.03c1.54,10.33-4.63,19.68-11.06,27.12c-9,10.47-21.68,18.78-35.88,18.96
		c-12.27-0.15-24.79-4.25-33.94-12.62C1063.63,406.155,1059.89,400.175,1060.01,393.565z"/>
	<path fill="#693A0C" stroke="#693A0C" d="M171.78,383.995c14.12-0.6,29.51,6.18,35.54,19.56c5.32,11.72,2.17,26.23-6.59,35.44
		c-6.85,7.68-16.71,11.62-26.31,14.64c-12.28,3.67-25.24,6.4-38.08,4.62c-7.65-1.14-15.35-4.26-20.43-10.3
		c-7.54-8.47-9.67-21.72-3.93-31.73c5.96-10.64,16.87-17.13,27.35-22.66C149.31,388.135,160.36,384.425,171.78,383.995
		 M162.68,390.895c-9.87,1.74-18.95,6.36-27.34,11.69c-4.78,3.05-9.39,6.59-12.45,11.45c-2.83,2.31-3.87,6.16-4.7,9.58
		c-1.85,9.03,4.16,18.07,12.14,21.89c9.76,4.83,20.97,3.87,31.51,3.5c15.29-0.89,31.24-7.06,40.2-20.04
		c1.91-3.57,3.88-7.29,3.98-11.43c0.83-10.62-6.02-20.9-15.64-25.11C181.76,388.155,171.81,389.145,162.68,390.895z"/>
	<path opacity="0.55" fill="#594939" stroke="#594939" enable-background="new    " d="M1201.38,387.945c1.93,0.25,1.93,4.94,0,5.2
		C1201.29,391.405,1201.29,389.675,1201.38,387.945z"/>
	<path fill="#D3C5B8" stroke="#D3C5B8" d="M61.84,388.545c1.11,0.71,1.07,2.21-0.09,2.86l-0.57-0.81
		C61.35,390.085,61.68,389.055,61.84,388.545z"/>
	<path fill="#FBDDC2" stroke="#FBDDC2" d="M162.68,390.895c9.13-1.75,19.08-2.74,27.7,1.53c9.62,4.21,16.47,14.49,15.64,25.11
		c-0.1,4.14-2.07,7.86-3.98,11.43c-3.6-5.98-6.53-12.61-11.94-17.23c-5.44-4.93-12.74-7.23-19.93-7.93
		c-12.31-1.15-25.01,0.32-36.42,5.24c-3.65,1.6-7.31,3.18-10.86,4.99c3.06-4.86,7.67-8.4,12.45-11.45
		C143.73,397.255,152.81,392.635,162.68,390.895z"/>
	<path fill="#F4BF8E" stroke="#F4BF8E" d="M133.75,409.045c11.41-4.92,24.11-6.39,36.42-5.24c7.19,0.7,14.49,3,19.93,7.93
		c5.41,4.62,8.34,11.25,11.94,17.23c-8.96,12.98-24.91,19.15-40.2,20.04c-10.54,0.37-21.75,1.33-31.51-3.5
		c-7.98-3.82-13.99-12.86-12.14-21.89c0.83-3.42,1.87-7.27,4.7-9.58C126.44,412.225,130.1,410.645,133.75,409.045z"/>
	<path fill="#DB3A22" stroke="#DB3A22" d="M513.43,431.675c16.62,15.74,33.98,30.7,52.14,44.63c3.48,2.76,8.21,4.97,9.11,9.8
		c1.61,6.57,4.14,12.87,5.68,19.47c-12.32-4.78-23.94-11.44-33.77-20.33c-8.66-6.95-15.79-15.5-23.14-23.76
		C519.03,451.985,516.19,441.775,513.43,431.675z"/>
	<path fill="#CE690D" stroke="#CE690D" d="M1144.52,469.775c6.02-5.71,11.73-11.73,17.87-17.32c-4.53,8.16-11.33,14.73-17.4,21.73
		c-21.66,22.6-47.14,41.39-74.34,56.78c-32.91,18.69-69.04,31.35-106.09,38.78c-48.45,9.45-98.45,9.63-147.25,2.75
		c-64.89-9.33-127.85-31.08-185.16-62.82c-5.1-2.9-10.53-5.34-15.01-9.2c8.02,2.83,15.66,6.57,23.59,9.64
		c51.56,20.54,105.7,34.29,160.56,42.45c28.5,4.15,57.2,7.29,86.01,7.92c22.99-0.13,46-2.02,68.6-6.29
		c36.38-6.49,71.19-19.46,105.03-34.01C1090.72,506.995,1120.13,491.695,1144.52,469.775z"/>
	<path fill="#FFFFFE" stroke="#FFFFFE" d="M402.02,465.695c-0.94-4.04-0.94-8.27,0.02-12.31
		C402.04,457.485,402.03,461.595,402.02,465.695z"/>
	<path fill="#F5D68A" stroke="#F5D68A" d="M1264.97,464.145c2.01-2.99,5.27-5.93,9.15-5.41c3.92,0.71,6.78,3.87,8.96,6.99
		c4.22,6.29,6.75,13.99,5.99,21.6c-0.25,1.39-0.53,2.77-0.78,4.16c-10.68-1.79-21.3-3.87-32.06-5.11
		C1257.8,478.535,1260.59,470.865,1264.97,464.145z"/>
	<path fill="#EA573B" stroke="#EA573B" d="M523.45,461.485c7.35,8.26,14.48,16.81,23.14,23.76c9.83,8.89,21.45,15.55,33.77,20.33
		c3.15,3.93,4.73,8.87,7.35,13.16c-5.93,1.84-12.1,2.94-17.85,5.35c-3.86,1.6-7.66,3.35-11.43,5.13
		c-10.39-14.48-18.96-30.21-26.45-46.35C528.95,475.815,525.5,468.905,523.45,461.485z"/>
	<path fill="#FBDDC2" stroke="#FBDDC2" d="M41.03,472.695c-0.62-3.07-0.62-6.23-0.01-9.3C41,466.495,41.01,469.595,41.03,472.695z"
		/>
	<path fill="#E1B045" stroke="#E1B045" d="M1256.23,486.375c10.76,1.24,21.38,3.32,32.06,5.11c0.25-1.39,0.53-2.77,0.78-4.16
		c0.11,3.98-0.4,7.93-0.93,11.87c-11.22-2.31-22.72-1.43-33.91,0.49C1254.39,495.185,1255.17,490.745,1256.23,486.375z"/>
	<path fill="#DEE6F3" stroke="#DEE6F3" d="M580.09,487.505c12.26,8.18,24.24,16.8,36.89,24.4c31.6,19.54,65.13,35.98,99.95,48.97
		c55.59,20.95,114.91,32.83,174.43,31.89c1.46,0.03,2.98,0.01,4.43,0.42c3.67,3.03,6.28,7.14,8.63,11.24
		c-13.91,2.45-28.01,3.62-42.13,3.34c-29.2,0.49-58.35-3.88-86.44-11.71c-31.4-8.91-62.24-20.07-91.57-34.44
		c-14.41-7.02-28.57-14.54-42.45-22.55c-12.71-7.44-25.75-14.48-37.27-23.75c-7.18-5.17-13.14-11.81-20.37-16.91
		C581.58,495.425,581.18,491.185,580.09,487.505z"/>
	<path fill="#F5D68A" stroke="#F5D68A" d="M1352.02,491.305c3.72-1.77,8.05-2.76,12.1-1.55c5.7,1.87,10.28,7.6,9.65,13.78
		c-0.59,8.83-5.35,16.64-9.74,24.08c-5.16-4.14-10.17-8.5-15.78-12.02c-4.99-3.14-10.19-5.91-15.26-8.9
		C1338.47,500.635,1344.54,494.815,1352.02,491.305z"/>
	<path fill="#FFFFFE" stroke="#FFFFFE" d="M584.19,498.405c7.23,5.1,13.19,11.74,20.37,16.91c11.52,9.27,24.56,16.31,37.27,23.75
		c13.88,8.01,28.04,15.53,42.45,22.55c29.33,14.37,60.17,25.53,91.57,34.44c28.09,7.83,57.24,12.2,86.44,11.71
		c14.12,0.28,28.22-0.89,42.13-3.34l0.8-0.13c0.38,1.05,0.77,2.12,1.18,3.19c-34.07,14.12-72.34,18.32-108.51,10.7
		c-28.33-6.15-56.11-14.71-83.14-25.16c-26.46-10.12-51.81-22.86-76.57-36.55c12.98,10.11,27.28,18.44,41.4,26.86
		c6.4,4.03,13.44,7,19.69,11.26c19.68,19.85,45.17,32.97,71.58,41.46c18.89,5.95,38.65,9.2,58.45,9.51
		c20.33-0.07,40.84,1.39,61.01-1.93c7.25-1.01,14.12-3.8,21.41-4.67c-3.24,12.25-13.77,21.13-25.05,25.95
		c-16.82,7.19-35.34,8.88-53.42,9.79c-22.46,0.5-44.86-2.94-66.54-8.65c-27.45-7.37-53.89-18.1-79.46-30.42
		c-31.59-15.46-61.32-34.96-87.21-58.83c-14.15-13.24-27.51-27.51-38.57-43.46c12.12-4.3,24.96-6.03,37.75-6.88
		C592.95,517.905,586.87,508.785,584.19,498.405z"/>
	<path fill="#E1B045" stroke="#E1B045" d="M1325.92,515.625c2.13-3.15,4.51-6.12,7.07-8.93c5.07,2.99,10.27,5.76,15.26,8.9
		c5.61,3.52,10.62,7.88,15.78,12.02c-2.7,5.23-5.33,10.5-8.59,15.42c-6.94-7.59-13.84-15.35-22.14-21.49
		C1330.75,519.665,1328.33,517.645,1325.92,515.625z"/>
	<path fill="#F5B071" stroke="#F5B071" d="M1224.36,522.605c14.69-9.52,32.38-14.69,49.92-13.3c19.1,1.44,37.77,9.3,52.21,21.85
		c-17.59-4.58-35.99-7.09-54.11-4.48c-21.43,2.38-41.75,11.2-59.08,23.85c-11.84,9.03-23.09,18.93-33.09,29.99
		c-5.09,5.89-10.79,11.21-15.95,17.04c-6.92,7.72-14.4,14.92-22.1,21.84c-11.95,11.48-24.64,22.18-37.86,32.16
		c-12.49,9.67-26.33,17.43-40.32,24.69c-4.49,2.38-9.18,4.33-13.89,6.24c5.1-4.71,11.11-8.27,16.42-12.73
		c14.13-11.1,27.6-23.01,40.61-35.4c27.45-26.57,51.95-56.03,79.99-82.01C1198.81,541.595,1211.06,531.355,1224.36,522.605z"/>
	<path fill="#E58E38" stroke="#E58E38" d="M1272.38,526.675c18.12-2.61,36.52-0.1,54.11,4.48c4.84,2.63,8.42,7.07,12.38,10.84
		c8.39,9.17,16.39,19.13,21.45,30.56c0.17,18.42-2.78,36.81-7.44,54.61c-4.42,15.68-9.46,31.31-17.07,45.77
		c-16.2,32.61-42.1,59.29-70.28,81.84c-23.89,18.62-48.85,36.01-75.4,50.63c-18.43,10.15-37.88,18.74-58.4,23.64
		c-19.18,4.64-39.76,5.59-58.81-0.09c-14.34-4.14-26.11-14.42-34.59-26.41c-7.67-11.44-13.44-24.04-18.04-36.98
		c-4.44-12.02-8.65-24.13-12.64-36.31c-0.61-7.21,0.34-14.47,0.55-21.69c9.38-5.25,18.92-10.23,27.95-16.11
		c4.79-2.77,8.93-6.58,13.94-8.97c4.71-1.91,9.4-3.86,13.89-6.24c13.99-7.26,27.83-15.02,40.32-24.69
		c13.22-9.98,25.91-20.68,37.86-32.16c7.7-6.92,15.18-14.12,22.1-21.84c5.16-5.83,10.86-11.15,15.95-17.04
		c10-11.06,21.25-20.96,33.09-29.99C1230.63,537.875,1250.95,529.055,1272.38,526.675 M1257.73,566.995
		c-9.6,0.67-19.35,3.81-26.32,10.68c-12.39,11.81-15.76,30.62-12.08,46.86c3.17,14.29,12.43,26.25,22.45,36.52
		c10.9,10.8,23.97,20.28,39.14,23.78c9.77,2.24,20.66,0.33,28.32-6.38c13-11.47,19.76-29.48,17.67-46.69
		c-2.3-19.43-13.41-37.15-28.29-49.54C1287.23,572.865,1272.78,565.915,1257.73,566.995z"/>
	<path fill="#693A0C" stroke="#693A0C" d="M1257.73,566.995c15.05-1.08,29.5,5.87,40.89,15.23c14.88,12.39,25.99,30.11,28.29,49.54
		c2.09,17.21-4.67,35.22-17.67,46.69c-7.66,6.71-18.55,8.62-28.32,6.38c-15.17-3.5-28.24-12.98-39.14-23.78
		c-10.02-10.27-19.28-22.23-22.45-36.52c-3.68-16.24-0.31-35.05,12.08-46.86C1238.38,570.805,1248.13,567.665,1257.73,566.995
		 M1240.42,577.585c-6.67,4.77-12.69,11.05-15.38,18.95c-3.63,6.21-3.51,14.2-1.86,21.06c2.3,9.16,8.56,16.54,14.32,23.76
		c9.9,11.52,21.11,22.52,35.11,28.87c11.42,5.23,26.3,4.11,35.65-4.74c3.3-3.41,6.32-7.58,7.03-12.38
		c3.42-8.5,2.73-17.98,1.42-26.85c-2.17-12.1-6.5-24.18-14.44-33.71c-8.9-10.11-20.53-18.53-33.98-21.06
		C1258.67,569.565,1248.38,571.875,1240.42,577.585z"/>
	<path fill="#F5D68A" stroke="#F5D68A" d="M1393.89,567.355c5.42-1.28,11.69-2.34,16.62,1c4.64,3.41,5.61,9.84,4.9,15.21
		c-0.89,6.43-5.33,11.58-10.26,15.46C1401.89,588.295,1398.48,577.605,1393.89,567.355z"/>
	<path fill="#E1B045" stroke="#E1B045" d="M1375.28,575.585c5.74-3.7,12.07-6.33,18.61-8.23c4.59,10.25,8,20.94,11.26,31.67
		c-5.94,4.33-12.69,7.39-19.7,9.51C1383.16,597.235,1379.83,586.185,1375.28,575.585z"/>
	<path fill="#FBDDC2" stroke="#FBDDC2" d="M1240.42,577.585c7.96-5.71,18.25-8.02,27.87-6.1c13.45,2.53,25.08,10.95,33.98,21.06
		c7.94,9.53,12.27,21.61,14.44,33.71c1.31,8.87,2,18.35-1.42,26.85c-2.35-9.75-5.29-19.49-10.34-28.22
		c-4.59-8.67-11.8-15.5-19.01-21.98c-11.05-9.05-25.11-15.68-39.7-14.45c-7.75,0.34-14.67,4.25-21.2,8.08
		C1227.73,588.635,1233.75,582.355,1240.42,577.585z"/>
	<path fill="#CE690D" stroke="#CE690D" d="M1360.32,572.555c8.06,14.04,11.99,30.32,12.47,46.45c0.47,21.55-6.35,42.62-16.63,61.36
		c-14.41,26.39-35.08,48.78-57.23,68.86c-28.23,25.13-59.39,46.82-91.97,65.92c-44.58,26.22-93.24,45.95-144.09,55.88
		c-8.48,1.43-16.91,3.35-25.52,3.67c-8.86-14.48-13.16-31.04-17.99-47.14c-6.88-23.88-10.35-48.64-11.54-73.43
		c-0.31-8.28-0.94-16.59-0.17-24.87c3.99,12.18,8.2,24.29,12.64,36.31c4.6,12.94,10.37,25.54,18.04,36.98
		c8.48,11.99,20.25,22.27,34.59,26.41c19.05,5.68,39.63,4.73,58.81,0.09c20.52-4.9,39.97-13.49,58.4-23.64
		c26.55-14.62,51.51-32.01,75.4-50.63c28.18-22.55,54.08-49.23,70.28-81.84c7.61-14.46,12.65-30.09,17.07-45.77
		C1357.54,609.365,1360.49,590.975,1360.32,572.555z"/>
	<path fill="#BC9C08" stroke="#BC9C08" d="M304.5,587.335c3.46,1.13,7.16,2.47,9.26,5.66c3.02,3.93,3.88,8.95,4.34,13.76
		C312.44,601.165,308.2,594.325,304.5,587.335z"/>
	<path fill="#F4BF8E" stroke="#F4BF8E" d="M1225.04,596.535c6.53-3.83,13.45-7.74,21.2-8.08c14.59-1.23,28.65,5.4,39.7,14.45
		c7.21,6.48,14.42,13.31,19.01,21.98c5.05,8.73,7.99,18.47,10.34,28.22c-0.71,4.8-3.73,8.97-7.03,12.38
		c-9.35,8.85-24.23,9.97-35.65,4.74c-14-6.35-25.21-17.35-35.11-28.87c-5.76-7.22-12.02-14.6-14.32-23.76
		C1221.53,610.735,1221.41,602.745,1225.04,596.535z"/>
	<path fill="#FFFFFE" stroke="#FFFFFE" d="M908.05,592.395c2.67,0.04,5.31-0.42,7.99-0.58l0.62-0.02c-1.83,0.53-3.65,1-5.5,1.37
		C910.38,592.965,908.83,592.585,908.05,592.395z"/>
	<path fill="#C8B7A6" stroke="#C8B7A6" d="M912.08,593.705l0.81-0.44l1,0.47l0.14,0.9C913.54,594.405,912.57,593.935,912.08,593.705
		z"/>
	<path fill="#DEE6F3" stroke="#DEE6F3" d="M699.27,594.595c11.52,5.05,22.59,11.09,34.29,15.78c18.74,7.9,38.1,14.43,57.92,19.05
		c32.74,8.18,68.31,8.12,99.82-4.87c6.78-2.52,12.92-6.4,19.63-9.07c2.73,7.49,3.38,15.62,1.45,23.38l-0.66,0.1
		c-7.29,0.87-14.16,3.66-21.41,4.67c-20.17,3.32-40.68,1.86-61.01,1.93c-19.8-0.31-39.56-3.56-58.45-9.51
		C744.44,627.565,718.95,614.445,699.27,594.595z"/>
	<path fill="#CE690D" stroke="#CE690D" d="M922.16,607.535c9.53,3.78,18.2,9.53,26.17,15.94c9.42,7.44,15.62,18.63,17.46,30.45
		c2.41,17.6-2.91,36.12-14.32,49.74c-1.85,2.24-4.07,4.12-6.36,5.87c4.54-7.2,9.33-14.53,11.29-22.93
		c2.09-8.77,1.46-18.35-2.74-26.42c-4.95-10.41-13.64-18.72-23.92-23.81c-0.37-5.94-0.27-12.1-2.62-17.68
		C925.53,614.935,923.62,611.335,922.16,607.535z"/>
	<path fill="#F7EF49" stroke="#F7EF49" d="M326.86,610.405c2.44,2.07,4.84,4.2,7.05,6.53c6.57,6.92,14.02,12.9,21.38,18.95
		c-3.6,18.09-12.66,34.4-21.08,50.6c-7.41,13.27-13.58,27.25-22.1,39.87c-5.79,8.6-12.07,16.95-19.54,24.18
		c-8.96-7.64-17.98-15.22-26.44-23.41c12.19-13.93,23.33-28.77,33.61-44.16C314.01,661.275,326.05,636.845,326.86,610.405z"/>
	<path fill="#26A7E0" stroke="#26A7E0" d="M360.52,640.305c5.21,3,9.91,6.78,15.02,9.94c34.08,21.7,73.27,35.94,113.67,39.04
		c11.66,1.04,23.35,0.36,35.03,0.04c5.42,31.16,14.26,62.23,30.86,89.4c15.25,25.42,37.63,46.58,64.17,59.87
		c2.51,1.35,5.41,2.26,7.41,4.4c2.75,48.88,4.21,97.89,8.32,146.7c3.48,37.58,7.61,75.15,13.97,112.35
		c-5.94,3.48-12.97,3.32-19.53,4.63c-33.76,5.43-67.9,9.46-102.14,8.97c-23.47,0.32-46.95-1.8-70.01-6.11
		c-28.55-5.87-56.64-17.73-78-38c-12.29-11.55-21.92-26.09-26.66-42.35c-8.83-28.88-6.19-60.02,1.43-88.86
		c7.68-29.2,20.76-56.76,36.69-82.33c7.15-11.64,14-23.47,21.66-34.79c7.58,1.35,15.14,2.8,22.76,3.93
		c0.27-0.33,0.79-0.98,1.06-1.31c-6.67-2.44-13.72-3.62-20.28-6.37c-2.76-9.44-12.62-14.44-21.67-16.01
		c-7.8-1.61-15.66,0.16-23.3,1.76c-1.71,0.2-3.26-0.76-4.68-1.55c-6.01-4.1-12.27-7.81-18.35-11.79
		c-16.95-11.75-33.38-24.22-49.79-36.72c9.96-10.87,18.89-22.68,26.35-35.41C339.62,694.835,352.64,668.435,360.52,640.305z"/>
	<path fill="#CABAAA" stroke="#CABAAA" d="M513.52,679.895c0.68,0.59,1.36,1.18,2.05,1.79c-3.22-0.24-6.43-0.48-9.64-0.8
		C508.46,680.595,511.01,680.365,513.52,679.895z"/>
	<path fill="#F7EF49" stroke="#F7EF49" d="M968.68,722.845c12.26-3.57,24.06-8.38,35.74-13.48c-3.22,43.33-1.01,87.3,9.47,129.58
		c4.14,16.16,8.59,32.47,16.88,47.08c-9.94,1.02-19.79-0.97-29.59-2.3c-20.88-32.12-33.13-69.91-34.59-108.22
		C965.82,757.945,966.62,740.295,968.68,722.845z"/>
	<path opacity="0.43" fill="#33210F" stroke="#33210F" enable-background="new    " d="M951.74,716.315
		c0.65-0.43,1.31-0.84,1.98-1.27c-0.28,2.03-0.56,4.07-0.68,6.13c-0.4,0.16-1.19,0.5-1.59,0.66l0.03-0.82
		C951.54,719.435,951.64,717.875,951.74,716.315z"/>
	<path fill="#FFFFFE" stroke="#FFFFFE" d="M951.45,721.835c-2.65,2.19-2.74-2.4,0.03-0.82L951.45,721.835z"/>
	<path fill="#BC9C08" stroke="#BC9C08" d="M224.44,721.605c8.25,3.49,16.37,7.28,24.77,10.42c-4.62,3.61-10.67,7.82-16.76,5.45
		C226.7,734.495,225.3,727.455,224.44,721.605z"/>
	<path fill="#CE690D" stroke="#CE690D" d="M537.37,724.335c2.09,2.61,4.34,5.1,6.34,7.78c10.42,14.36,22.82,27.28,36.74,38.3
		c24.51,19.93,54.53,33.01,85.85,37.21c15.59,2.19,31.96,0.94,46.39-5.68c17.12-7.13,30.25-21.4,39.38-37.21
		c-4.92-1.35-9.84-2.68-14.7-4.21c-9.95-3.16-19.15-8.38-27.41-14.72c6.92-0.14,13.63,1.76,20.45,2.56
		c14.59,2.12,29.28,3.35,43.98,4.4c-4.56,17.95-12.37,35.34-24.16,49.73c-9.5,11.33-20.93,21.45-34.67,27.28
		c-19.22,8.89-41.56,9-61.71,3.36c-22.75-6.21-43.33-18.71-61.16-33.93c-21.21-17.81-39.46-39.56-51.56-64.58
		C539.41,731.385,538.11,727.925,537.37,724.335z"/>
	<path fill="#1087AB" stroke="#1087AB" d="M941.59,728.885c7.19-1.8,14.57-2.9,21.83-4.48c-0.35,2.27-0.36,4.66-1.25,6.82
		c-8.18,11.38-17.82,21.81-29.48,29.7c-16.14,11.2-35.09,18.31-54.64,20.29c-9.7,1.15-19.49,1.1-29.22,1.85
		c-7.93-9.75-15.36-19.9-23.44-29.54c32.99-1.18,67.27-1.33,98.05-14.82C929.91,736.215,935.41,731.895,941.59,728.885z"/>
	<path fill="#D1C600" stroke="#D1C600" d="M257.31,735.525c2.97-2.76,5.88-5.59,8.82-8.4c8.46,8.19,17.48,15.77,26.44,23.41
		c-5.28,5.49-10.93,10.73-17.31,14.91c-2.17,1.68-4.53-0.47-6.54-1.36c-9.07-5.39-18.13-11.09-25.66-18.55
		C247.94,742.405,253.04,739.505,257.31,735.525z"/>
	<path fill="#26A7E0" stroke="#26A7E0" d="M932.69,760.925c11.66-7.89,21.3-18.32,29.48-29.7c-0.28,7.78-1.57,15.49-1.81,23.29
		c-1.13,21.52-0.31,43.23,3.59,64.45c3.71,19.13,9.87,37.86,18.85,55.18c0.89,1.84,1.62,3.76,2.32,5.7
		c-37.2-9.26-71.91-27.47-101.58-51.62c-4.93-4.82-8.37-10.91-12.74-16.22c-7.25-9.7-14.77-19.2-21.97-28.94
		c9.73-0.75,19.52-0.7,29.22-1.85C897.6,779.235,916.55,772.125,932.69,760.925z"/>
	<path fill="#1087AB" stroke="#1087AB" d="M788.23,753.345c7.04-0.05,14.07,0.29,21.11,0.14c2.39,0.14,5.49-0.36,6.96,2.06
		c4.39,5.63,8.36,11.59,12.68,17.29c2.11,2.74,3.95,5.7,5.43,8.84c-16.44-0.81-32.84-2.66-49.12-5.05
		C787.25,769.015,787.99,761.175,788.23,753.345z"/>
	<path fill="#1087AB" stroke="#1087AB" d="M280.89,769.865c5.99-4.63,11.78-9.5,17.27-14.72c16.41,12.5,32.84,24.97,49.79,36.72
		c6.08,3.98,12.34,7.69,18.35,11.79c-7.26-1.62-14.12-4.54-21.12-6.98c-20.26-7.29-40.21-15.41-59.84-24.23
		C283.84,771.605,282.39,770.685,280.89,769.865z"/>
	<path fill="#26A7E0" stroke="#26A7E0" d="M785.29,776.625c16.28,2.39,32.68,4.24,49.12,5.05l0.87,0.04
		c20.79,30.47,40.42,61.76,62.38,91.43c25,34.54,42.38,73.72,59.22,112.67c-4.92,6.28-11.83,10.4-17.97,15.33
		c-29.46,22.81-61.33,42.79-95.77,57.18c-25.82,10.43-52.65,18.22-79.84,24.15c-7.27,1.47-14.43,3.97-21.94,3.62
		c-9.7-46.53-16.72-93.55-22.94-140.66c-3.36-24.6-6.47-49.24-9.34-73.9c-0.68-6.94-1.75-13.84-1.96-20.81
		c15.01-4.2,29.21-11.29,41.53-20.84C765.9,816.345,777.98,797.115,785.29,776.625z"/>
	<path fill="#1087AB" stroke="#1087AB" d="M370.98,805.205c7.64-1.6,15.5-3.37,23.3-1.76c9.05,1.57,18.91,6.57,21.67,16.01
		c-8.06-1.63-15.75-4.59-23.63-6.88C385.17,810.225,377.83,808.355,370.98,805.205z"/>
	<path fill="#1087AB" stroke="#1087AB" d="M372.83,814.715c6.46,0.93,12.7,2.84,19.07,4.21c6.81,1.55,13.69,2.74,20.51,4.28
		c-7.66,11.32-14.51,23.15-21.66,34.79c-15.93,25.57-29.01,53.13-36.69,82.33c-7.62,28.84-10.26,59.98-1.43,88.86
		c4.74,16.26,14.37,30.8,26.66,42.35c21.36,20.27,49.45,32.13,78,38c23.06,4.31,46.54,6.43,70.01,6.11
		c34.24,0.49,68.38-3.54,102.14-8.97c6.56-1.31,13.59-1.15,19.53-4.63c2.45,18.22,6.49,36.18,9.38,54.33
		c-24.62,2.17-49.36,2.54-74.05,3.14c-48.35,0.42-96.72-2.02-144.77-7.38c-24.22-2.97-48.57-5.67-72.32-11.49
		c-19.32-4.65-38.26-10.89-56.71-18.27c-1.19-11.57-0.85-23.22-0.91-34.84c-0.5-50.2,3.97-100.59,15.2-149.57
		c8.2-34.81,19.79-68.95,36.01-100.87C364.61,829.525,368.73,822.125,372.83,814.715z"/>
	<path fill="#1087AB" stroke="#1087AB" d="M883.54,828.225c29.67,24.15,64.38,42.36,101.58,51.62c2.57,2.15,3.56,5.73,5.47,8.47
		c4.94,8.2,10.98,15.65,16.88,23.17c-25.58-0.6-50.96-5.57-75.05-14.12c-2.6-0.94-3.83-3.6-5.21-5.77
		c-8.92-15.66-19.87-30.01-30.38-44.6C892.51,840.655,887.22,834.985,883.54,828.225z"/>
	<path fill="#F7EF49" stroke="#F7EF49" d="M632.02,844.735c12.92,5.11,26.52,8.83,40.46,9.44c9.94,0.75,19.83-0.4,29.63-1.92
		c3.49,46.97,6.64,94,12.66,140.73c3.15,24.99,7,49.88,11.35,74.69c1.07,7.27,2.97,14.44,3.19,21.82c-23,4-46.05,7.81-69.02,11.99
		c-7.2-41.85-13.58-83.88-17.53-126.17c-2.7-26.88-4.82-53.82-7.14-80.73C634.39,877.975,632.21,861.415,632.02,844.735z"/>
	<path fill="#BC9C08" stroke="#BC9C08" d="M1051.09,890.245c12.16-1.98,24.07-5.17,36.13-7.66c-4.46,5.47-9.53,11.15-16.52,13.23
		C1063.74,897.835,1056.17,895.165,1051.09,890.245z"/>
	<path fill="#D1C600" stroke="#D1C600" d="M1001.18,883.725c9.8,1.33,19.65,3.32,29.59,2.3c2.07,2.92,4.11,5.86,6.34,8.68
		c3.64,4.6,8.55,7.91,13.12,11.5c-8.36,2.67-17.04,4.73-25.83,5.05c-2.4,0.21-3.85-2.03-5.34-3.5
		C1012.6,900.135,1006.34,892.285,1001.18,883.725z"/>
	<path fill="#CDBEAE" stroke="#CDBEAE" d="M937.33,908.975c-1.54-1.72,1.11-2.91,1.63-0.76
		C938.55,908.405,937.74,908.785,937.33,908.975z"/>
	<path opacity="0.95" fill="#876646" stroke="#876646" enable-background="new    " d="M1007.96,920.905
		c4.88-0.4,9.79-0.38,14.68,0.01C1017.79,921.855,1012.79,921.865,1007.96,920.905z"/>
	<path fill="#1087AB" stroke="#1087AB" d="M956.88,985.815c11.6,27.66,23.22,55.33,33.11,83.66
		c-30.81,17.78-63.09,33.13-96.57,45.21c-37.38,13.38-76.19,22.45-115.37,28.68c-7.56,1.16-15.07,2.68-22.71,3.26
		c-4.74-20.16-9.15-40.4-13.98-60.53c7.51,0.35,14.67-2.15,21.94-3.62c27.19-5.93,54.02-13.72,79.84-24.15
		c34.44-14.39,66.31-34.37,95.77-57.18C945.05,996.215,951.96,992.095,956.88,985.815z"/>
	<path opacity="0.9" fill="#886A4E" stroke="#886A4E" enable-background="new    " d="M297.63,1082.905
		c-0.49-4.54-0.83-9.21,0.59-13.61C298.42,1073.835,298.24,1078.395,297.63,1082.905z"/>
	<path fill="#BB0A46" stroke="#BB0A46" d="M894.4,1132.575c36.38-12.06,70.93-29.32,103.08-50.13c7.25,5.12,14.14,10.76,20.83,16.61
		c-19.07,14.28-37.93,28.99-58.68,40.82c-9.09,5.44-18.78,9.77-28.15,14.71c-14.63,6.47-29.88,11.51-45.32,15.7
		c-58.67,15.88-118.46,28.04-178.98,34.09c-10.25,1.35-20.59,1.46-30.88,2.15c-23.29,1.84-46.65,2.36-70,2.14
		c-14.36-0.15-28.74,0.22-43.07-0.82c-9.25-0.62-18.53-0.01-27.77-0.68c-11.36-0.93-22.78-0.36-34.14-1.37
		c-38.48-1.22-76.86-4.72-114.96-10.17c-0.45,10.36,1.43,20.59,3.03,30.78c3.67,22.14,10.1,43.76,18.45,64.58
		c12.23,31.5,28.17,61.98,50.37,87.66c4.12,4.54,8.5,8.84,12.51,13.5c6.32,7.38,14.18,13.36,19.83,21.33
		c-15.43,0.99-30.89-0.66-46.32-1.15c-12.84-1.01-25.76-1.27-38.52-3.14c-16.77-33.12-31.53-67.25-43.7-102.32
		c-15.45-42.83-26.92-87.17-32.73-132.37c-1.23-11.36-3.27-22.68-3.15-34.13c17.31,6.33,34.76,12.43,52.72,16.72
		c42.92,10.8,87.09,15.9,131.25,17.88c11.36,0.86,22.77,0.44,34.15,1.19c16.34-0.05,32.7,0.42,49.03-0.46
		c11.03-0.23,22.07-0.06,33.08-0.87c50.61-1.62,101.22-5.69,151.22-13.88C817.15,1154.475,856.41,1145.525,894.4,1132.575z"/>
	<path fill="#D1C600" stroke="#D1C600" d="M660.29,1101.485c22.97-4.18,46.02-7.99,69.02-11.99c1.18,1.17,0.98,3.09,1.41,4.64
		c2.66,18.27,6.35,36.38,10.4,54.39c-10.56,1.71-21.24,2.48-31.86,3.7c-13.29,1.08-26.54,2.73-39.87,3.23
		C665.83,1137.565,663.28,1119.475,660.29,1101.485z"/>
	<path fill="#D80252" stroke="#D80252" d="M959.63,1139.875c20.75-11.83,39.61-26.54,58.68-40.82
		c27.59,22.71,53.32,47.71,76.76,74.69c25.65,29.61,48.45,61.61,69.25,94.76c-5.35,5.99-11.38,11.29-17.17,16.84
		c-14.66,14.11-30.18,27.3-46.15,39.89c-16.16,12.87-34.72,22.37-53.93,29.79c-5.89-5.95-10.44-13.03-16.18-19.09
		c-6.05-6.29-11.53-13.14-18.26-18.74c-25.02-24.31-56.45-40.9-88.91-53.02c-16.29-5.89-32.76-11.33-49.63-15.31
		c-11.44-2.88-22.98-5.66-34.8-6.35c-13.95-0.92-27.93-2.68-41.93-1.64c-7.62,0.54-15.29,0.19-22.88,1.12
		c-21.85,2.56-43.5,7.57-63.9,15.88c-13.2,5.89-26.35,12.25-37.82,21.14c-7.06,5.53-14.11,11.18-19.9,18.07
		c-6.98,8.14-14.07,16.72-17.04,27.24c-0.81,1.96-2.29,3.51-3.64,5.12c-13.45,14.73-22.4,33.4-25.93,53.01
		c-1.69,8.49-2.09,17.16-2.3,25.81c-37.48,4.09-75.21,6.75-112.93,5.83l-0.47-0.62c-5.65-7.97-13.51-13.95-19.83-21.33
		c-4.01-4.66-8.39-8.96-12.51-13.5c-22.2-25.68-38.14-56.16-50.37-87.66c-8.35-20.82-14.78-42.44-18.45-64.58
		c-1.6-10.19-3.48-20.42-3.03-30.78c38.1,5.45,76.48,8.95,114.96,10.17c11.36,1.01,22.78,0.44,34.14,1.37
		c9.24,0.67,18.52,0.06,27.77,0.68c14.33,1.04,28.71,0.67,43.07,0.82c23.35,0.22,46.71-0.3,70-2.14c10.29-0.69,20.63-0.8,30.88-2.15
		c60.52-6.05,120.31-18.21,178.98-34.09c15.44-4.19,30.69-9.23,45.32-15.7C940.85,1149.645,950.54,1145.315,959.63,1139.875z"/>
	<path fill="#BB0A46" stroke="#BB0A46" d="M774.48,1241.995c7.59-0.93,15.26-0.58,22.88-1.12c14-1.04,27.98,0.72,41.93,1.64
		c11.82,0.69,23.36,3.47,34.8,6.35c16.87,3.98,33.34,9.42,49.63,15.31c32.46,12.12,63.89,28.71,88.91,53.02
		c6.73,5.6,12.21,12.45,18.26,18.74c5.74,6.06,10.29,13.14,16.18,19.09c-21.72,7.97-44.05,14.18-66.53,19.58
		c-7.18-14.07-15.18-27.82-25.34-39.98c-11.88-14.16-25.72-26.81-41.59-36.38c-29.56-17.82-64.1-25.61-98.26-27.61
		c-40.75-2.42-82.31,2.6-120.48,17.47c-17.17,6.66-33.55,15.55-47.95,27.09c-3.74,3-6.91,6.71-11.1,9.13
		c2.97-10.52,10.06-19.1,17.04-27.24c5.79-6.89,12.84-12.54,19.9-18.07c11.47-8.89,24.62-15.25,37.82-21.14
		C730.98,1249.565,752.63,1244.555,774.48,1241.995z"/>
	<path fill="#FFFFFE" stroke="#FFFFFE" d="M778.05,1284.285c11.81-0.7,23.68-0.68,35.5,0
		C801.72,1284.655,789.87,1284.665,778.05,1284.285z"/>
	<path fill="#CE690D" stroke="#CE690D" d="M1117.22,1329.395c8.19-6.62,15.67-14.06,23.79-20.75c2.66,6.58,5.76,12.98,8.51,19.53
		c-23.85,21.56-50.53,41.12-67.88,68.72c-14.24,22.38-22.53,48.42-23.99,74.91c-1.23,14.53,1.66,28.93,3.13,43.33
		c1.63,17.02,4.97,33.95,11,49.98c5.52,14.27,13.08,28.06,24.17,38.78c12.51,13.07,29.64,20.64,46.96,24.93
		c33.72,7.66,69.09,1.53,100.96-10.72c18.89-7.34,36.83-17.04,53.57-28.43c13.9-9.17,25.88-20.82,36.92-33.21
		c-2.54,6.63-7.24,12.07-11.58,17.57c-23.93,28.07-57.24,46.56-91.91,58.01c-37.66,12.45-79.1,13.49-117.16,2.15
		c-21.62-6.64-43.04-16.6-58.7-33.36c-10.25-9.86-18.21-22.14-22.31-35.8c-6.25-19.87-5.79-40.97-5.18-61.54
		c1.08-28.5,4.07-57.01,2.33-85.55c-0.91-13.65-3.29-27.17-7.09-40.3c17.59-5.56,35.01-11.82,51.6-19.95
		C1089.85,1350.245,1103.93,1340.225,1117.22,1329.395z"/>
	<path fill="#E58E38" stroke="#E58E38" d="M1081.64,1396.895c17.35-27.6,44.03-47.16,67.88-68.72
		c8.19,15.94,16.95,31.77,28.72,45.39c14.86,18.22,30.74,35.64,48.37,51.23c-7.95,3.79-16.28,6.73-24.02,10.97
		c-15.55,8.46-30.75,17.6-45.14,27.93c-4.88,3.55-10.09,6.71-14.39,11.01c6.43-2.74,12.13-6.83,18.23-10.19
		c8.66-5.1,17.48-9.94,26.34-14.69c1.42-0.73,2.88-1.51,4.5-1.72c11.38-0.63,22.77-0.3,34.16,0.11c20.31-0.27,40.9,0.26,60.63,5.62
		c14.46,3.79,28.38,10.49,39.5,20.6c11.84,11.42,17.84,27.48,20.53,43.41c0.01,6.42-1.75,12.71-3.47,18.86
		c-2.24,6.89-4.68,13.94-9.12,19.76c-11.04,12.39-23.02,24.04-36.92,33.21c-16.74,11.39-34.68,21.09-53.57,28.43
		c-31.87,12.25-67.24,18.38-100.96,10.72c-17.32-4.29-34.45-11.86-46.96-24.93c-11.09-10.72-18.65-24.51-24.17-38.78
		c-6.03-16.03-9.37-32.96-11-49.98c-1.47-14.4-4.36-28.8-3.13-43.33C1059.11,1445.315,1067.4,1419.275,1081.64,1396.895
		 M1329.63,1504.045c-7.27,1.01-12,7.53-15.16,13.59c-3.33,7.14-7.16,14.75-6.1,22.89c0.63,5.81,6.09,10.48,11.92,10.4
		c5.64,0.32,10.36-3.49,13.88-7.48c7.18-7.9,11.34-19.3,8.08-29.82C1340.77,1508.115,1335.49,1503.565,1329.63,1504.045
		 M1274.62,1558.895c-7.35,2-13.49,6.87-19.04,11.9c-4.29,4.18-8.61,8.95-9.97,14.95c-1.53,7.03,3.38,15.03,10.72,15.94
		c6.78,0.83,13.37-1.84,19.34-4.77c6.89-3.65,13.81-8.34,17.55-15.4c2.63-4.71,1.65-10.51-0.73-15.08
		C1289.19,1560.235,1281.37,1556.915,1274.62,1558.895 M1178.7,1581.985c-9.45,0.91-19.6,3.49-26.29,10.67
		c-4.5,4.76-4.35,12.38-0.97,17.72c3.62,6.18,11,8.88,17.83,9.36c8.51,0.49,17.31-1.15,24.76-5.4c6.76-3.76,10.66-12.05,9.08-19.64
		c-1.05-5.09-5.08-9.19-9.78-11.15C1188.7,1581.685,1183.6,1581.645,1178.7,1581.985z"/>
	<path fill="#FFFFFE" stroke="#FFFFFE" d="M1012.51,1380.005c0.73-1,2.49-1.1,2.65,0.43l-0.86,0.44
		C1013.85,1380.655,1012.96,1380.225,1012.51,1380.005z"/>
	<path opacity="0.41" fill="#493F36" stroke="#493F36" enable-background="new    " d="M1266.62,1417.485
		c-0.71-1.86,3.04-1.86,2.37,0.01C1268.4,1417.495,1267.21,1417.485,1266.62,1417.485z"/>
	<path fill="#FFFFFE" stroke="#FFFFFE" d="M1020.52,1422.245c0.68,8.51,0.72,17.08,0,25.6
		C1020.17,1439.315,1020.23,1430.765,1020.52,1422.245z"/>
	<path fill="#FBDDC2" stroke="#FBDDC2" d="M411.54,1425.325c0.65,2.79,0.55,5.68,0.13,8.52
		C411.4,1430.995,411.39,1428.155,411.54,1425.325z"/>
	<path fill="#CE690D" stroke="#CE690D" d="M421.6,1426.815c49.09,4.04,98.55,7.6,147.71,2.66c4.2-0.6,8.43-0.85,12.67-1.02
		c1.4,17.12,4.97,34.03,10.02,50.44c6.84,22.08,16.76,43.04,24,64.99c6.15,18.35,10.58,37.76,8.82,57.23
		c-1.58,17.63-8.64,34.55-19.31,48.61c-17.78,23.38-43.87,38.93-71.07,49.02c-40.32,14.79-83.74,19.89-126.51,18.25
		c-9.99-0.68-20.06-1.11-29.84-3.37c25.95,0.23,51.95-1.04,77.66-4.67c32.79-4.7,65.79-13.79,93.51-32.51
		c12.11-8.64,23.92-17.94,33.55-29.36c10.26-12.38,14.88-28.63,15.51-44.48c0.67-18.94-5.69-37.14-12.6-54.48
		c-9.22-22.8-19.21-45.37-25.78-69.13c-11.84,1.17-23.7,1.92-35.59,2.21c-34.56,0.01-69.05-3.29-103.21-8.4
		C422.43,1457.505,422.52,1442.135,421.6,1426.815z"/>
	<path fill="#FFFFFE" stroke="#FFFFFE" d="M591.67,1430.285c-0.56-1.11-1.19-3.09,0.5-3.49
		C593.05,1428.095,592.89,1429.265,591.67,1430.285z"/>
	<path fill="#F5B071" stroke="#F5B071" d="M1218.2,1436.505c16.66-5.68,34.29-10.12,52.03-8.63c30.73,3.33,58.93,24.07,71.28,52.4
		c4.96,11.77,7.23,24.86,5.44,37.57c-2.69-15.93-8.69-31.99-20.53-43.41c-11.12-10.11-25.04-16.81-39.5-20.6
		c-19.73-5.36-40.32-5.89-60.63-5.62c-11.39-0.41-22.78-0.74-34.16-0.11C1200.26,1443.105,1209.34,1439.935,1218.2,1436.505z"/>
	<path fill="#E58E38" stroke="#E58E38" d="M421.14,1472.805c34.16,5.11,68.65,8.41,103.21,8.4c11.89-0.29,23.75-1.04,35.59-2.21
		c6.57,23.76,16.56,46.33,25.78,69.13c6.91,17.34,13.27,35.54,12.6,54.48c-0.63,15.85-5.25,32.1-15.51,44.48
		c-9.63,11.42-21.44,20.72-33.55,29.36c-27.72,18.72-60.72,27.81-93.51,32.51c-25.71,3.63-51.71,4.9-77.66,4.67
		c-6.8-0.45-13.39-2.35-20-3.87c-19.55-4.98-38.63-12.93-54.68-25.33c-2.52-2.03-5.37-3.9-7.04-6.75
		c-2.15-7.75-3.48-15.76-3.47-23.82c5.24,1.2,11,1.55,16.01-0.73c10.03-4.42,15.61-16.95,12.19-27.34
		c-2.48-6.75-9.97-9.98-16.79-9.44c5.48-6.47,10.11-13.66,16.3-19.49c22.38-21.28,50.8-35.31,80.34-43.63
		c29.02-8.24,59.46-10.94,89.52-9.07c6.24,1.2,11.94,4.27,17.94,6.31c8.14,2.88,15.82,7.01,24.2,9.22
		c-5.79-5.2-13.2-7.88-19.97-11.48c-19.54-9.68-39.45-19.13-60.78-24.12c-13.22-3.3-26.87-4.25-40.45-3.83
		c1.76-7.07,4.06-13.99,5.53-21.13C418.86,1490.435,419.95,1481.605,421.14,1472.805 M358.77,1656.005
		c-6.26,0.67-12.41,2.32-18.21,4.74c-4.82,1.97-9.26,6.29-9.28,11.81c-0.3,4.5,2.52,8.46,5.86,11.19c8.11,6.71,19.88,9.6,29.84,5.53
		c6.87-2.58,12.03-9.37,12.22-16.75c0.27-5.66-2.94-11.2-7.72-14.11C367.67,1656.175,363.1,1655.645,358.77,1656.005
		 M426.68,1670.015c-5.71,1.47-9.67,6.31-13.09,10.8c-3.98,5.28-2.9,13.19,1.7,17.75c6.07,6.36,15.59,7.82,23.97,6.71
		c6.68-0.79,12.86-4.63,16.63-10.19c2.95-4.09,3.64-9.84,1.2-14.32c-2.36-4.44-7.17-6.68-11.66-8.35
		C439.46,1670.355,432.99,1668.665,426.68,1670.015z"/>
	<path fill="#693A0C" stroke="#693A0C" d="M1329.63,1504.045c5.86-0.48,11.14,4.07,12.62,9.58c3.26,10.52-0.9,21.92-8.08,29.82
		c-3.52,3.99-8.24,7.8-13.88,7.48c-5.83,0.08-11.29-4.59-11.92-10.4c-1.06-8.14,2.77-15.75,6.1-22.89
		C1317.63,1511.575,1322.36,1505.055,1329.63,1504.045 M1328.75,1511.065c-6.11,2.57-9.66,8.84-12.27,14.62
		c-2.07,5.57-3.47,13.06,1.1,17.8c3.69,1.11,7.36-1.24,10.02-3.6c6.26-6.08,10.37-15.26,8.32-24.02
		C1335.26,1512.725,1332.07,1509.755,1328.75,1511.065z"/>
	<path fill="#F5D68A" stroke="#F5D68A" d="M1328.75,1511.065c3.32-1.31,6.51,1.66,7.17,4.8c2.05,8.76-2.06,17.94-8.32,24.02
		c-2.66,2.36-6.33,4.71-10.02,3.6c-4.57-4.74-3.17-12.23-1.1-17.8C1319.09,1519.905,1322.64,1513.635,1328.75,1511.065z"/>
	<path fill="#FBDDC2" stroke="#FBDDC2" d="M1014.03,1534.705c-0.61-3.1-0.63-6.27,0.03-9.34
		C1014.05,1528.465,1014.03,1531.575,1014.03,1534.705z"/>
	<path fill="#F5B071" stroke="#F5B071" d="M406.42,1533.685c19.04-3.4,38.7-2.18,57.46,2.33c8.98,2.24,18.07,4.41,26.59,8.14
		c-30.06-1.87-60.5,0.83-89.52,9.07c-29.54,8.32-57.96,22.35-80.34,43.63c-6.19,5.83-10.82,13.02-16.3,19.49
		c-7.74,0.58-15.66,3.35-20.83,9.39c-3.88,4.15-5.2,10.44-3.17,15.78c2.02,5.82,7.31,9.65,12.59,12.34
		c-0.01,8.06,1.32,16.07,3.47,23.82c-6.93-5.23-11.85-12.67-16.21-20.06c-8.11-14.16-8.13-32.01-1.57-46.77
		c7.36-17.27,20.68-31.4,35.71-42.35C341.37,1549.195,373.81,1538.745,406.42,1533.685z"/>
	<path fill="#693A0C" stroke="#693A0C" d="M1274.62,1558.895c6.75-1.98,14.57,1.34,17.87,7.54c2.38,4.57,3.36,10.37,0.73,15.08
		c-3.74,7.06-10.66,11.75-17.55,15.4c-5.97,2.93-12.56,5.6-19.34,4.77c-7.34-0.91-12.25-8.91-10.72-15.94
		c1.36-6,5.68-10.77,9.97-14.95C1261.13,1565.765,1267.27,1560.895,1274.62,1558.895 M1275.69,1564.915
		c-8.13,2.6-14.8,8.4-20.15,14.88c-1.71,2.18-3.66,4.7-3.19,7.68c0.24,3.31,2.32,7.08,5.98,7.39c4.5,0.14,8.75-1.73,12.85-3.4
		c5.25-2.38,10.65-5.15,14.3-9.76c3.28-4.31,3.92-11.17-0.06-15.25C1282.93,1563.825,1278.89,1563.825,1275.69,1564.915z"/>
	<path fill="#F5D68A" stroke="#F5D68A" d="M1275.69,1564.915c3.2-1.09,7.24-1.09,9.73,1.54c3.98,4.08,3.34,10.94,0.06,15.25
		c-3.65,4.61-9.05,7.38-14.3,9.76c-4.1,1.67-8.35,3.54-12.85,3.4c-3.66-0.31-5.74-4.08-5.98-7.39c-0.47-2.98,1.48-5.5,3.19-7.68
		C1260.89,1573.315,1267.56,1567.515,1275.69,1564.915z"/>
	<path fill="#693A0C" stroke="#693A0C" d="M1178.7,1581.985c4.9-0.34,10-0.3,14.63,1.56c4.7,1.96,8.73,6.06,9.78,11.15
		c1.58,7.59-2.32,15.88-9.08,19.64c-7.45,4.25-16.25,5.89-24.76,5.4c-6.83-0.48-14.21-3.18-17.83-9.36
		c-3.38-5.34-3.53-12.96,0.97-17.72C1159.1,1585.475,1169.25,1582.895,1178.7,1581.985 M1173.64,1587.935
		c-5.53,1.24-11.67,3.03-15,8c-2.31,3.29-3.7,8.01-1.3,11.65c2.37,3.2,6.69,3.78,10.37,4.37c7.36,0.71,15.34,0.84,21.99-2.91
		c4.38-2.37,7.59-7.37,6.74-12.45c-0.66-3.78-3.87-6.52-7.26-7.91C1184.26,1586.685,1178.75,1586.995,1173.64,1587.935z"/>
	<path fill="#F5D68A" stroke="#F5D68A" d="M1173.64,1587.935c5.11-0.94,10.62-1.25,15.54,0.75c3.39,1.39,6.6,4.13,7.26,7.91
		c0.85,5.08-2.36,10.08-6.74,12.45c-6.65,3.75-14.63,3.62-21.99,2.91c-3.68-0.59-8-1.17-10.37-4.37c-2.4-3.64-1.01-8.36,1.3-11.65
		C1161.97,1590.965,1168.11,1589.175,1173.64,1587.935z"/>
	<path fill="#693A0C" stroke="#693A0C" d="M283.48,1625.735c5.17-6.04,13.09-8.81,20.83-9.39c6.82-0.54,14.31,2.69,16.79,9.44
		c3.42,10.39-2.16,22.92-12.19,27.34c-5.01,2.28-10.77,1.93-16.01,0.73c-5.28-2.69-10.57-6.52-12.59-12.34
		C278.28,1636.175,279.6,1629.885,283.48,1625.735 M299.61,1621.935c-6.14,1.41-12.01,5.8-13.88,11.99
		c-1.65,5.68,2.28,11.55,7.51,13.64c8.93,3.96,20.48-2.09,22.51-11.59c0.87-4.31,0-9.47-3.64-12.29
		C308.52,1621.125,303.76,1621.155,299.61,1621.935z"/>
	<path fill="#F5D68A" stroke="#F5D68A" d="M299.61,1621.935c4.15-0.78,8.91-0.81,12.5,1.75c3.64,2.82,4.51,7.98,3.64,12.29
		c-2.03,9.5-13.58,15.55-22.51,11.59c-5.23-2.09-9.16-7.96-7.51-13.64C287.6,1627.735,293.47,1623.345,299.61,1621.935z"/>
	<path fill="#693A0C" stroke="#693A0C" d="M358.77,1656.005c4.33-0.36,8.9,0.17,12.71,2.41c4.78,2.91,7.99,8.45,7.72,14.11
		c-0.19,7.38-5.35,14.17-12.22,16.75c-9.96,4.07-21.73,1.18-29.84-5.53c-3.34-2.73-6.16-6.69-5.86-11.19
		c0.02-5.52,4.46-9.84,9.28-11.81C346.36,1658.325,352.51,1656.675,358.77,1656.005 M352.62,1662.855
		c-4.59,1.14-9.33,2.87-12.73,6.29c-2.11,2.03-1.56,5.51,0.35,7.5c4.77,5.23,12.18,7.44,19.1,7.22c4.66-0.07,9.45-2.32,11.71-6.53
		c1.72-3.15,2.83-7.8,0.08-10.66C365.99,1662.665,358.92,1661.465,352.62,1662.855z"/>
	<path opacity="0.55" fill="#76706A" stroke="#76706A" enable-background="new    " d="M1160.71,1659.575
		c1.71-0.14,3.44-0.14,5.18,0C1165.63,1661.475,1160.95,1661.475,1160.71,1659.575z"/>
	<path fill="#F5D68A" stroke="#F5D68A" d="M352.62,1662.855c6.3-1.39,13.37-0.19,18.51,3.82c2.75,2.86,1.64,7.51-0.08,10.66
		c-2.26,4.21-7.05,6.46-11.71,6.53c-6.92,0.22-14.33-1.99-19.1-7.22c-1.91-1.99-2.46-5.47-0.35-7.5
		C343.29,1665.725,348.03,1663.995,352.62,1662.855z"/>
	<path fill="#693A0C" stroke="#693A0C" d="M426.68,1670.015c6.31-1.35,12.78,0.34,18.75,2.4c4.49,1.67,9.3,3.91,11.66,8.35
		c2.44,4.48,1.75,10.23-1.2,14.32c-3.77,5.56-9.95,9.4-16.63,10.19c-8.38,1.11-17.9-0.35-23.97-6.71c-4.6-4.56-5.68-12.47-1.7-17.75
		C417.01,1676.325,420.97,1671.485,426.68,1670.015 M424.76,1676.025c-4.48,2.41-8.11,6.81-9.08,11.88
		c-0.54,2.51,1.07,4.82,2.88,6.42c4.57,3.98,10.71,6.01,16.74,6.1c6.23,0.14,11.92-3.57,15.71-8.27c1.83-2.27,2.92-5.73,1.02-8.28
		c-3.47-4.59-9.45-5.99-14.72-7.39C433.23,1675.645,428.77,1674.365,424.76,1676.025z"/>
	<path fill="#F5D68A" stroke="#F5D68A" d="M424.76,1676.025c4.01-1.66,8.47-0.38,12.55,0.46c5.27,1.4,11.25,2.8,14.72,7.39
		c1.9,2.55,0.81,6.01-1.02,8.28c-3.79,4.7-9.48,8.41-15.71,8.27c-6.03-0.09-12.17-2.12-16.74-6.1c-1.81-1.6-3.42-3.91-2.88-6.42
		C416.65,1682.835,420.28,1678.435,424.76,1676.025z"/>
	<path opacity="0.9" fill="#896B4F" stroke="#896B4F" enable-background="new    " d="M417.07,1732.715
		c9.15-0.24,18.32-0.25,27.48-0.01c-4.65,1.33-9.5,0.77-14.25,0.86C425.87,1733.595,421.39,1733.865,417.07,1732.715z"/>
</g>
</svg>
