<?xml version="1.0" encoding="utf-8"?>

<!DOCTYPE svg PUBLIC "-//W3C//DTD SVG 1.1//EN" "http://www.w3.org/Graphics/SVG/1.1/DTD/svg11.dtd">
<svg version="1.1" id="Layer_1" xmlns="http://www.w3.org/2000/svg" xmlns:xlink="http://www.w3.org/1999/xlink" x="0px" y="0px"
	 viewBox="0 0 1121.754 1662.986" enable-background="new 0 0 1121.754 1662.986" xml:space="preserve">
<g>
	<path stroke="#000000" d="M552.078,32.733c20.548-1.853,41.542-2.111,61.747,2.634c29.694,6.795,56.968,21.595,81.36,39.535
		c27.609,20.342,51.984,44.734,74.239,70.738c38.539,45.24,70.961,95.362,99.986,147.122c36,64.57,66.603,132.048,93.346,200.933
		c25.97,67.075,48.243,135.583,66.903,205.043c20.625,76.959,36.883,155.135,47.316,234.127
		c10.021,77.396,14.911,155.805,8.545,233.716c-0.472,6.375-1.836,13.521-7.155,17.717c-5.482,4.324-13.092,3.655-19.381,1.716
		c-10.853-3.466-20.437-9.995-29.076-17.288c-17.434-14.894-31.847-33.658-40.341-55.055c-0.626-1.253-2.102-1.853-2.634-3.166
		c-33.701-62.313-67.444-124.627-98.313-188.407c-31.272-64.861-60.254-131.078-81.566-199.946
		c-8.88-29.119-16.541-58.693-21.054-88.824c-3.655,0.498-7.301,1.047-10.93,1.656c6.126,40.736,17.605,80.476,30.818,119.427
		c23.508,68.182,53.459,133.935,85.521,198.471c16.361,32.817,33.323,65.342,50.645,97.67
		c14.877,28.004,30.217,55.767,45.017,83.805c0.009,7.224-1.476,14.431-2.428,21.603c-7.644,47.496-24.692,93.088-46.879,135.634
		c-2.479,4.89-5.482,9.54-7.679,14.577c-7.112,34.764-18.806,68.405-31.701,101.402c-14.431,36.48-30.886,72.154-49.307,106.79
		c-15.151,28.132-31.418,55.827-51.1,81.068c-8.477,10.57-17.485,20.977-28.596,28.879c-5.834,4.024-12.603,7.481-19.887,7.164
		c-8.399-0.515-15.949-4.847-22.684-9.583c-13.118-9.618-23.963-21.912-34.147-34.49c-11.153-14.036-21.466-28.741-30.981-43.936
		c-18.352,5.903-37.167,10.407-56.308,12.792c-50.834,6.074-103.152-1.922-150.159-22.075c-0.798,11.196-2.025,22.581-6.28,33.074
		c-2.325,5.457-5.8,11.008-11.445,13.487c-4.187,1.905-9.043,1.364-13.204-0.343c-37.699-15.443-76.933-28.304-117.634-32.551
		c-19.33-2.119-38.805-1.724-58.212-1.124c-19.064,0.541-38.557-0.789-56.514-7.704c-7.567-3.063-15.743-5.851-21.372-12.063
		c-5.877-6.375-8.125-15.306-7.962-23.791c-0.18-10.004,1.99-20.042,0.206-29.985c-1.287-8.82-6.246-16.722-12.603-22.796
		c-2.445-2.385-5.499-4.47-6.555-7.885c-1.699-4.127-0.575-9.232,2.917-12.072c4.95-4.118,11.136-6.297,17.056-8.631
		c17.897-6.486,36.429-11.042,54.978-15.28c23.242-5.13,46.638-9.6,70.224-12.861c-9.42-13.693-18.798-27.446-27.266-41.757
		c-37.081-62.116-63.832-130.186-80.914-200.41c-14.843-62.004-22.393-126.162-17.657-189.891
		c3.423-55.407,7.919-110.753,13.71-165.963c6.186-57.964,13.59-115.824,23.336-173.307
		c-19.656,69.683-33.374,140.996-42.048,212.867c-3.561,29.273-6.375,58.633-8.537,88.043c-0.661,6.683-0.721,13.427-1.613,20.093
		c-24.392,7.739-49.53,14.431-75.286,14.671c-9.764-0.249-20.008-1.098-28.639-6.091c-6.177-3.552-10.973-10.21-10.493-17.571
		c0.626-12.106,3.964-23.843,7.155-35.468c8.683-29.754,19.484-58.83,30.56-87.76c25.739-66.217,54.043-131.413,83.771-195.931
		c23.396-50.242,47.428-100.235,74.299-148.727c1.733-3.432,4.247-6.529,5.105-10.338c9.523-37.484,20.351-74.642,32.997-111.182
		c15.049-43.224,32.517-85.71,54.188-126.068c22.65-42.057,49.821-82.209,84.44-115.386c25.395-24.314,55.064-44.579,88.061-57.037
		C512.629,39.331,532.233,34.775,552.078,32.733 M636.938,112.283c-13.95,1.905-27.274,7.833-38.205,16.67
		c-14.302,11.419-24.537,27.626-29.316,45.249c-6.967,25.275-2.96,53.734,11.831,75.509c-0.781-3.329-2.196-6.478-2.9-9.824
		c-6.237-25.241,0.043-53.768,18.18-72.763c10.965-11.677,26.245-19.433,42.297-20.505c13.084-0.961,26.614,2.076,37.707,9.172
		c-8.871-1.896-18.214,0.583-25.567,5.714c-19.716-2.788-39.878,7.25-51.563,23.002c-10.21,13.478-14.662,31.178-11.994,47.874
		c1.879,12.02,7.353,23.525,15.855,32.259c10.827,11.428,26.631,18.137,42.409,17.365c3.02-0.112,6.186-0.034,8.983-1.39
		c2.068,0.223,4.092-0.764,6.074-1.287c19.433-6.263,34.507-23.345,39.466-43.001c2.951-10.767,2.145-22.127,0.112-32.963
		c2.788-5.534,4.135-11.883,3.389-18.06c1.407,1.733,2.059,3.912,2.969,5.928c9.755,23.379,8.065,51.417-5.311,73.055
		c4.968-3.938,8.691-9.24,12.303-14.396c18.309-27.094,20.153-64.124,5.113-93.097c-7.722-15.177-19.982-28.115-35.056-36.129
		C669.523,113.072,652.896,109.958,636.938,112.283 M392.953,135.945c-15.503,13.487-24.666,33.048-28.295,53.03
		c-3.475,19.99-1.879,40.993,5.431,59.971c0.746,2.059,1.433,4.178,2.685,5.997c-0.3-3.209-1.304-6.297-1.707-9.489
		c-2.196-14.92-1.175-30.397,3.595-44.734c3.998-12.063,10.699-23.439,20.325-31.864c7.876-6.924,17.94-11.651,28.51-12.089
		c13.967-0.849,27.832,5.594,37.184,15.795c-7.73-2.625-16.43-3.123-24.074,0.043c-2.308-0.961-4.805-1.235-7.275-1.33
		c-8.082-0.446-16.164,2.128-22.856,6.581c-8.348,5.654-14.68,13.916-18.952,22.976c-8.048,17.459-9.06,37.965-3.106,56.205
		c3.998,11.968,11.454,23.259,22.427,29.857c7.327,4.307,16.275,6.675,24.701,4.762c8.099-0.944,15.478-5.328,21.406-10.767
		c11.582-10.973,17.897-26.631,19.45-42.323c0.249-3.586,0.901-7.31-0.146-10.819c1.587-3.535,4.642-6.169,6.117-9.781
		c1.304-2.171,1.278-4.916,2.805-6.932c4.273,20.625,2.857,42.915-6.658,61.936c6.752-8.03,11.539-17.605,15.014-27.472
		c7.044-20.634,7.816-43.31,2.411-64.424c-3.99-15.4-11.411-30.174-22.727-41.491c-10.338-10.639-24.752-17.828-39.758-17.751
		C416.04,121.617,403.008,127.263,392.953,135.945 M470.761,292.788c-6.392,1.913-12.818,4.238-18.163,8.322
		c-2.943,2.334-5.68,5.56-5.688,9.515c-0.721,19.673,3.355,39.08,7.576,58.178c4.255,17.417,9.395,34.679,16.687,51.074
		c6.066,13.376,13.29,26.674,24.22,36.738c7.378,6.778,17.356,11.642,27.592,10.356c9.017-1.364,16.567-7.095,23.002-13.221
		c11.917-11.805,20.625-26.339,28.355-41.105c8.571-17.073,15.469-34.996,20.334-53.476c2.265-9.103,4.607-18.326,4.985-27.738
		c1.038-3.106,0.721-6.443,0.841-9.669c-0.163-4.084,0.455-8.348-0.961-12.26c-1.622-7.009-8.897-10.621-14.911-13.367
		c-20.068-7.927-41.997-9.412-63.377-9.292C504.272,286.731,487.165,288.232,470.761,292.788 M412.351,714.507
		c-33.572,4.049-65.805,17.554-92.711,37.973c-21.483,16.121-39.74,36.326-54.609,58.658c-26.133,39.38-42.151,84.92-49.787,131.404
		c-7.636,46.355-7.009,93.92,0.592,140.233c11.497,69.915,38.78,137.762,82.201,194.018c20.282,26.133,44.099,49.684,71.356,68.516
		c27.635,19.072,58.959,33.28,92.119,39.217c38.479,7.07,79.095,2.111,114.588-14.422c-1.193-3.183-2.282-6.383-3.449-9.558
		c-5.396-15.692-10.235-31.581-13.967-47.754c-3.595-16.335-6.512-33.177-4.513-49.933c1.201-8.356,4.281-17.494,11.908-22.075
		c5.062-3.192,11.239-2.951,16.962-2.445c12.861-0.18,26.039-0.909,38.385-4.624c11.402-2.256,22.212-7.31,31.804-13.839
		c13.916-9.549,24.057-23.465,32.516-37.853c3.2-5.56,6.907-10.862,9.789-16.567c6.546-9.343,13.47-18.944,23.585-24.718
		c1.15-3.809,0.961-7.927,1.51-11.857c4.787-53.236-0.652-107.236-14.731-158.747c-17.837-64.87-49.967-126.488-96.76-175.186
		c-27.163-28.047-59.396-51.7-95.748-66.354C481.579,715.683,446.515,710.08,412.351,714.507 M739.558,1149.37
		c-5.139,0.738-10.193,2.299-14.714,4.865c-9.206,5.173-15.52,13.985-21.054,22.727c-8.76,13.933-16.396,28.776-27.575,41.01
		c-9.729,11.033-22.032,19.793-35.691,25.267c-17.082,7.087-35.725,9.292-54.068,9.712c-5.414,0.155-11.677-1.578-16.19,2.359
		c-4.925,4.453-5.8,11.643-5.886,17.931c-0.601,17.374,3.415,34.447,7.859,51.117c8.863,32.002,20.986,63.008,34.473,93.328
		c14.414,32.439,30.672,64.055,48.535,94.727c16.447,27.489,33.855,54.669,55.355,78.529c8.957,9.438,18.36,19.201,30.578,24.332
		c4.89,2.214,10.682,2.325,15.452-0.292c12.149-6.048,21.277-16.516,29.943-26.674c11.522-13.959,21.552-29.076,31.058-44.459
		c17.348-28.313,32.645-57.835,46.698-87.915c16.155-34.73,30.578-70.301,42.434-106.738c6.006-19.132,11.471-38.505,14.628-58.332
		c1.613-8.923,1.124-18.017,1.158-27.034c-0.146-4.11-0.884-9.026-4.642-11.419c-4.118-2.154-8.785-0.232-13.144-0.42
		c-16.293-0.352-32.774-2.231-48.157-7.85c-14.868-5.362-28.347-14.585-38.565-26.657c-10.407-11.874-17.631-26.013-25.67-39.483
		c-5.602-9.172-12.123-18.42-21.826-23.602C761.127,1149.31,750.059,1148.315,739.558,1149.37 M267.64,1411.853
		c-30.517,5.379-60.958,11.66-90.566,20.891c-6.735,2.188-13.487,4.504-19.75,7.859c1.424,2.008,3.071,3.861,4.616,5.791
		c8.211,10.458,12.217,23.825,12.174,37.047c0.335,9.043-1.69,18.06-0.609,27.103c0.721,4.702,4.736,7.936,8.803,9.866
		c14.937,7.301,31.478,11.351,48.114,11.54c16.301,0.3,32.594-0.42,48.895-0.197c7.07-0.146,14.182,0.875,21.226,0
		c-0.498,0.318-0.987,0.661-1.467,1.03c34.275,2.557,67.607,11.883,99.909,23.25c9.343,3.183,17.537,9.472,27.558,10.63
		c2.574,1.124,5.8,0.935,7.979-0.952c4.05-3.32,5.542-8.605,7.035-13.401c1.69-6.829,2.54-13.865,2.891-20.883
		c0.678-2.505-2.342-2.994-3.929-3.921c-2.668-1.501-5.431-2.823-8.236-4.024c-7.927-4.641-16.138-8.811-23.791-13.916
		c-14.611-9.154-28.441-19.501-41.645-30.569c-3.234-2.891-6.495-5.757-9.858-8.485c-11.145-10.27-21.741-21.106-32.105-32.165
		c-1.51-1.956-3.097-3.861-4.908-5.525c-7.155-8.339-14.019-16.91-20.926-25.456C288.471,1407.915,278.107,1410.343,267.64,1411.853
		z"/>
	<path fill="#FFFFFF" stroke="#FFFFFF" d="M636.938,112.283c15.958-2.325,32.585,0.789,46.776,8.382
		c15.074,8.013,27.334,20.951,35.056,36.129c15.04,28.973,13.195,66.002-5.113,93.097c-3.612,5.156-7.336,10.458-12.303,14.396
		c13.376-21.638,15.066-49.676,5.311-73.055c-0.909-2.016-1.561-4.195-2.969-5.928c0.746,6.177-0.601,12.526-3.389,18.06
		c-4.05,8.219-11.788,14.302-20.445,17.065c-9.583,2.471-20.273,0.961-28.338-4.925c-9.386-6.512-14.843-18.077-13.985-29.462
		c0.523-9.738,5.946-18.523,13.427-24.538c7.353-5.131,16.696-7.61,25.567-5.714c-11.093-7.095-24.623-10.132-37.707-9.172
		c-16.052,1.072-31.332,8.828-42.297,20.505c-18.137,18.995-24.417,47.522-18.18,72.763c0.704,3.346,2.119,6.495,2.9,9.824
		c-14.791-21.775-18.798-50.233-11.831-75.509c4.779-17.622,15.014-33.829,29.316-45.249
		C609.663,120.116,622.988,114.187,636.938,112.283z"/>
	<path fill="#FFFFFF" stroke="#FFFFFF" d="M392.953,135.945c10.055-8.683,23.088-14.328,36.506-14.113
		c15.006-0.077,29.419,7.112,39.758,17.751c11.316,11.316,18.738,26.09,22.727,41.491c5.405,21.114,4.633,43.79-2.411,64.424
		c-3.475,9.866-8.262,19.441-15.014,27.472c9.515-19.021,10.93-41.311,6.658-61.936c-1.527,2.016-1.501,4.762-2.805,6.932
		c-1.476,3.612-4.53,6.246-6.117,9.781c-3.552,2.093-6.907,4.53-10.596,6.383c-9.051,3.869-19.776,3.603-28.501-1.012
		c-12.629-6.332-20.05-21.226-17.511-35.133c1.827-10.124,8.382-19.416,17.743-23.885c1.064-0.515,2.136-1.012,3.217-1.493
		c7.644-3.166,16.344-2.668,24.074-0.043c-9.352-10.201-23.216-16.644-37.184-15.795c-10.57,0.438-20.634,5.165-28.51,12.089
		c-9.626,8.425-16.327,19.802-20.325,31.864c-4.77,14.336-5.791,29.814-3.595,44.734c0.403,3.192,1.407,6.28,1.707,9.489
		c-1.253-1.819-1.939-3.938-2.685-5.997c-7.31-18.978-8.906-39.981-5.431-59.971C368.286,168.994,377.449,149.432,392.953,135.945z"
		/>
	<path fill="#01FEFE" stroke="#01FEFE" d="M599.402,184.505c11.685-15.752,31.847-25.79,51.563-23.002
		c-7.481,6.014-12.904,14.8-13.427,24.538c-10.664,3.192-18.703,12.071-23.182,21.989c-6.572,14.645-7.052,31.916-1.398,46.939
		c3.698,9.824,10.424,19.021,20.068,23.654c6.272,3.132,13.607,3.097,20.316,1.587c0.326,0.103,0.987,0.3,1.313,0.403
		c-2.797,1.356-5.963,1.278-8.983,1.39c-15.778,0.772-31.581-5.937-42.409-17.365c-8.502-8.734-13.976-20.239-15.855-32.259
		C584.74,215.683,589.193,197.984,599.402,184.505z"/>
	<path fill="#02FEFD" stroke="#02FEFD" d="M406.474,177.856c6.692-4.453,14.774-7.027,22.856-6.581
		c1.459,0.764,2.797,1.759,4.058,2.823c-9.36,4.47-15.915,13.762-17.743,23.885c-9.103,5.62-14.585,15.572-17.511,25.593
		c-4.487,16.172-3.226,34.292,4.993,49.092c4.659,8.417,12.346,15.443,21.912,17.597c2.111,0.686,4.29,1.167,6.503,1.39
		c-8.425,1.913-17.374-0.455-24.701-4.762c-10.973-6.598-18.429-17.888-22.427-29.857c-5.954-18.24-4.942-38.745,3.106-56.205
		C391.794,191.772,398.126,183.51,406.474,177.856z"/>
	<path fill="#59DDDD" stroke="#59DDDD" d="M429.33,171.276c2.471,0.094,4.968,0.369,7.275,1.33c-1.081,0.48-2.154,0.978-3.217,1.493
		C432.127,173.034,430.788,172.039,429.33,171.276z"/>
	<path stroke="#000000" d="M614.357,208.03c4.479-9.918,12.518-18.798,23.182-21.989c-0.858,11.385,4.599,22.95,13.985,29.462
		c8.065,5.886,18.755,7.396,28.338,4.925c2.231,13.504,1.098,27.866-5.311,40.135c-4.384,8.837-11.857,16.25-21.209,19.647
		c-6.709,1.51-14.045,1.544-20.316-1.587c-9.643-4.633-16.37-13.83-20.068-23.654C607.304,239.946,607.785,222.676,614.357,208.03z"
		/>
	<path stroke="#000000" d="M398.135,223.577c2.926-10.021,8.408-19.973,17.511-25.593c-2.54,13.907,4.882,28.802,17.511,35.133
		c8.725,4.616,19.45,4.882,28.501,1.012c1.278,16.335-1.785,34.147-13.135,46.621c-5.808,6.632-14.62,10.501-23.482,9.515
		c-9.566-2.153-17.253-9.18-21.912-17.597C394.909,257.869,393.647,239.749,398.135,223.577z"/>
	<path fill="#02FEFE" stroke="#02FEFE" d="M679.861,220.428c8.657-2.763,16.396-8.846,20.445-17.065
		c2.033,10.836,2.84,22.195-0.112,32.963c-4.959,19.656-20.033,36.738-39.466,43.001c-1.982,0.523-4.007,1.51-6.074,1.287
		c-0.326-0.103-0.987-0.3-1.313-0.403c9.352-3.398,16.825-10.81,21.209-19.647C680.96,248.294,682.092,233.932,679.861,220.428z"/>
	<path fill="#04FCFC" stroke="#04FCFC" d="M461.658,234.129c3.689-1.853,7.044-4.29,10.596-6.383
		c1.047,3.509,0.395,7.233,0.146,10.819c-1.553,15.692-7.867,31.35-19.45,42.323c-5.928,5.439-13.307,9.824-21.406,10.767
		c-2.214-0.223-4.393-0.704-6.503-1.39c8.863,0.987,17.674-2.883,23.482-9.515C459.873,268.276,462.936,250.465,461.658,234.129z"/>
	<path fill="#FF6600" stroke="#FF6600" d="M470.761,292.788c16.404-4.556,33.512-6.057,50.491-5.946
		c21.38-0.12,43.31,1.364,63.377,9.292c6.014,2.745,13.29,6.357,14.911,13.367c-0.472,7.293-0.369,14.637,0.12,21.929
		c-0.378,9.412-2.72,18.635-4.985,27.738c-4.865,18.48-11.763,36.403-20.334,53.476c-7.73,14.765-16.438,29.299-28.355,41.105
		c-6.435,6.126-13.985,11.857-23.002,13.221c-10.235,1.287-20.213-3.578-27.592-10.356c-10.93-10.064-18.154-23.362-24.22-36.738
		c-7.293-16.396-12.432-33.658-16.687-51.074c-4.221-19.098-8.296-38.505-7.576-58.178c0.009-3.955,2.745-7.181,5.688-9.515
		C457.943,297.026,464.369,294.701,470.761,292.788 M589.098,313.276c-1.064,3.406-2.505,6.683-3.552,10.098
		c-4.255,14.551-9.618,28.741-14.448,43.104c-6.134,15.795-11.745,31.899-20.239,46.63c-2.359,4.333-6.16,7.576-9.669,10.948
		c-7.67,6.229-16.979,9.995-26.193,13.324c-3.509,1.424-7.353,2.214-10.433,4.53c4.976,2.119,10.553,1.467,15.821,1.759
		c10.673,0.755,19.604-6.632,26.356-14.062c8.262-9.909,15.04-20.968,20.548-32.619c8.528-18.051,15.357-36.926,19.999-56.35
		c2.557-10.999,4.71-22.212,5.002-33.52C590.359,308.609,589.87,311.097,589.098,313.276z"/>
	<path fill="#E84F08" stroke="#E84F08" d="M589.098,313.276c0.772-2.179,1.261-4.667,3.192-6.16
		c-0.292,11.308-2.445,22.521-5.002,33.52c-4.642,19.424-11.471,38.299-19.999,56.35c-5.508,11.651-12.286,22.71-20.548,32.619
		c-6.752,7.43-15.683,14.817-26.356,14.062c-5.268-0.292-10.845,0.36-15.821-1.759c3.08-2.316,6.924-3.106,10.433-4.53
		c9.214-3.329,18.523-7.095,26.193-13.324c3.509-3.372,7.31-6.615,9.669-10.948c8.494-14.731,14.105-30.835,20.239-46.63
		c4.83-14.362,10.193-28.553,14.448-43.104C586.593,319.959,588.034,316.682,589.098,313.276z"/>
	<path fill="#E27220" stroke="#E27220" d="M599.54,309.501c1.416,3.912,0.798,8.176,0.961,12.26
		c-0.12,3.226,0.197,6.563-0.841,9.669C599.171,324.138,599.068,316.793,599.54,309.501z"/>
	<path fill="#FFFFFF" stroke="#FFFFFF" d="M412.351,714.507c34.164-4.427,69.228,1.175,101.041,14.088
		c36.352,14.654,68.585,38.308,95.748,66.354c46.793,48.697,78.923,110.316,96.76,175.186
		c14.079,51.512,19.518,105.511,14.731,158.747c-0.549,3.929-0.36,8.048-1.51,11.857c-10.115,5.774-17.039,15.375-23.585,24.718
		c3.458-19.724,6.769-39.543,7.773-59.585c2.48-38.205-1.047-76.813-10.69-113.868c-14.637-56.848-41.525-111.122-81.102-154.758
		c-9.463-10.253-19.458-20.042-30.243-28.896c2.917,6.795,7.078,12.972,10.33,19.613c16.859,31.693,31.255,64.698,42.863,98.665
		c10.69,31.813,19.115,64.51,23.01,97.884c4.393,38.436,3.741,77.568-3.363,115.652c-5.019,26.159-13.049,51.795-24.46,75.886
		c-2.582,5.963-6.289,11.419-8.228,17.665c-12.346,3.715-25.524,4.444-38.385,4.624c-5.723-0.506-11.9-0.746-16.962,2.445
		c-7.627,4.581-10.707,13.719-11.908,22.075c-1.999,16.756,0.918,33.598,4.513,49.933c-21.526,20.634-45.978,37.99-71.391,53.511
		c-4.17,2.634-8.408,5.191-12.397,8.099c-1.27,0.721-1.716,2.093-2.059,3.44c7.867,0.626,15.649-0.961,23.439-1.828
		c15.134-1.973,30.234-4.144,45.369-6.109c10.793-1.27,21.243-4.659,31.006-9.36c1.167,3.174,2.256,6.375,3.449,9.558
		c-35.494,16.533-76.109,21.492-114.588,14.422c-33.16-5.937-64.484-20.145-92.119-39.217
		c-27.257-18.832-51.074-42.383-71.356-68.516c-43.421-56.256-70.704-124.103-82.201-194.018
		c-7.601-46.313-8.228-93.878-0.592-140.233c7.636-46.484,23.654-92.024,49.787-131.404c14.868-22.333,33.126-42.537,54.609-58.658
		C346.546,732.061,378.779,718.557,412.351,714.507z"/>
	<path fill="#CCCCCC" stroke="#CCCCCC" d="M581.274,808.35c10.784,8.854,20.78,18.643,30.243,28.896
		c39.578,43.635,66.466,97.91,81.102,154.758c9.643,37.055,13.17,75.663,10.69,113.868c-1.004,20.042-4.315,39.86-7.773,59.585
		c-2.883,5.705-6.589,11.008-9.789,16.567c-8.459,14.388-18.6,28.304-32.516,37.853c-9.592,6.529-20.402,11.582-31.804,13.839
		c1.939-6.246,5.645-11.702,8.228-17.665c11.411-24.091,19.441-49.727,24.46-75.886c7.104-38.085,7.756-77.216,3.363-115.652
		c-3.895-33.375-12.32-66.071-23.01-97.884c-11.608-33.966-26.005-66.972-42.863-98.665
		C588.352,821.323,584.191,815.145,581.274,808.35z"/>
	<path fill="#FF6600" stroke="#FF6600" d="M739.558,1149.37c10.501-1.055,21.569-0.06,30.989,5.028
		c9.703,5.182,16.224,14.431,21.826,23.602c8.039,13.47,15.263,27.609,25.67,39.483c10.218,12.071,23.697,21.294,38.565,26.657
		c15.383,5.62,31.865,7.499,48.157,7.85c4.358,0.189,9.026-1.733,13.144,0.42c3.758,2.394,4.496,7.31,4.642,11.419
		c-0.034,9.017,0.455,18.111-1.158,27.034c-3.157,19.827-8.622,39.2-14.628,58.332c-11.857,36.437-26.279,72.008-42.434,106.738
		c-14.053,30.08-29.351,59.602-46.698,87.915c-9.506,15.383-19.536,30.5-31.058,44.459c-8.665,10.158-17.794,20.625-29.943,26.674
		c-4.77,2.617-10.561,2.505-15.452,0.292c-12.217-5.131-21.62-14.894-30.578-24.332c-21.5-23.86-38.908-51.04-55.355-78.529
		c-17.863-30.672-34.121-62.287-48.535-94.727c-13.487-30.32-25.61-61.327-34.473-93.328c-4.444-16.67-8.459-33.743-7.859-51.117
		c0.086-6.289,0.961-13.479,5.886-17.931c4.513-3.938,10.776-2.205,16.19-2.359c18.343-0.42,36.986-2.625,54.068-9.712
		c13.659-5.474,25.962-14.234,35.691-25.267c11.179-12.234,18.815-27.077,27.575-41.01c5.534-8.743,11.848-17.554,21.054-22.727
		C729.365,1151.67,734.419,1150.108,739.558,1149.37 M782.087,1175.392c0.686,5.645,2.926,10.956,4.032,16.524
		c2.84,12.895,4.255,26.468,1.313,39.466c-1.836,6.606-4.41,13.247-9.077,18.403c-8.125,9.652-20.368,14.542-32.319,17.477
		c-20.977,4.822-43.593,5.525-64.003-2.136c-8.631-3.123-16.713-7.516-25.335-10.664c-7.662-3.552-16.353-4.341-24.658-3.363
		c-0.935,0.257-3.234,0.626-2.308,2.076c1.956,3.32,4.624,6.177,7.155,9.086c4.727,4.796,8.768,10.227,12.466,15.847
		c5.439,8.125,8.151,18.395,6.049,28.072c-1.579,5.525-4.17,10.836-7.919,15.212c-2.05,2.471-4.719,4.436-6.323,7.267
		c6.641-0.764,12.981-3.046,19.064-5.705c15.804-7.147,28.844-18.866,43.953-27.214c12.475-6.864,26.682-11.033,41.01-10.51
		c13.53-0.249,27.094,0.386,40.504,2.351c14.053,2.042,28.132,6.057,39.998,14.096c7.713,5.637,14.028,13.478,16.833,22.701
		c2.557,7.859,2.608,16.241,2.136,24.417c-1.922,17.803-8.073,34.773-14.671,51.297c-7.576,17.897-15.958,35.434-24.177,53.03
		c-1.527,2.677-2.402,7.516-6.555,6.426c-16.67-2.145-34.945-1.544-49.453,7.927c-5.354,3.646-10.63,7.73-14.173,13.264
		c-8.245,11.805-11.84,26.211-12.801,40.418c-0.884,21.149,2.394,42.666,10.767,62.176c3.363,7.027,6.898,14.628,13.847,18.798
		c4.092,1.887,8.794,0.807,12.844-0.626c11.033-5.105,19.845-13.865,27.497-23.113c19.055-22.899,33.52-49.135,47.342-75.389
		c4.11-7.73,7.447-15.846,11.591-23.559c10.982-23.251,20.891-46.999,30.354-70.91c11.831-31.556,22.787-63.506,30.552-96.331
		c2.54-12.844,5.465-25.773,5.019-38.951c-0.18-4.633-0.12-10.15-3.784-13.547c-2.96-3.029-7.353-0.875-10.982-1.175
		c-13.539-0.635-27.214-1.81-40.187-5.954c-17.211-4.787-32.757-15.143-43.713-29.265c-10.107-12.157-16.927-26.545-25.37-39.818
		C786.617,1180.651,785.064,1177.34,782.087,1175.392z"/>
	<path fill="#E84F09" stroke="#E84F09" d="M782.087,1175.392c2.977,1.948,4.53,5.259,6.52,8.099
		c8.442,13.273,15.263,27.661,25.37,39.818c10.956,14.122,26.502,24.477,43.713,29.265c12.972,4.144,26.648,5.319,40.187,5.954
		c3.629,0.3,8.022-1.853,10.982,1.175c3.664,3.397,3.603,8.914,3.784,13.547c0.446,13.178-2.479,26.108-5.019,38.951
		c-7.765,32.825-18.721,64.776-30.552,96.331c-9.463,23.911-19.373,47.659-30.354,70.91c-4.144,7.713-7.481,15.829-11.591,23.559
		c-13.822,26.253-28.287,52.49-47.342,75.389c-7.653,9.249-16.464,18.009-27.497,23.113c-4.049,1.433-8.751,2.514-12.844,0.626
		c-6.949-4.17-10.484-11.771-13.847-18.798c-8.374-19.51-11.651-41.027-10.767-62.176c0.961-14.208,4.556-28.613,12.801-40.418
		c3.543-5.534,8.82-9.618,14.173-13.264c14.508-9.472,32.782-10.072,49.453-7.927c4.152,1.09,5.028-3.749,6.555-6.426
		c8.219-17.597,16.601-35.133,24.177-53.03c6.598-16.524,12.749-33.495,14.671-51.297c0.472-8.176,0.42-16.558-2.136-24.417
		c-2.806-9.223-9.12-17.065-16.833-22.701c-11.866-8.039-25.945-12.054-39.998-14.096c-13.41-1.965-26.974-2.6-40.504-2.351
		c-14.328-0.523-28.536,3.646-41.01,10.51c-15.109,8.348-28.15,20.068-43.953,27.214c-6.083,2.66-12.423,4.942-19.064,5.705
		c1.604-2.831,4.273-4.796,6.323-7.267c3.749-4.376,6.34-9.686,7.919-15.212c2.102-9.678-0.609-19.948-6.049-28.072
		c-3.698-5.62-7.739-11.051-12.466-15.847c-2.531-2.908-5.199-5.765-7.155-9.086c-0.927-1.45,1.373-1.819,2.308-2.076
		c8.305-0.978,16.996-0.189,24.658,3.363c8.622,3.149,16.704,7.542,25.335,10.664c20.411,7.661,43.026,6.958,64.003,2.136
		c11.951-2.934,24.194-7.825,32.319-17.477c4.667-5.156,7.241-11.797,9.077-18.403c2.943-12.998,1.527-26.571-1.313-39.466
		C785.012,1186.348,782.773,1181.038,782.087,1175.392z"/>
	<path fill="#CCCCCC" stroke="#CCCCCC" d="M558.684,1312.794c3.732,16.172,8.571,32.062,13.967,47.754
		c-9.763,4.702-20.213,8.09-31.006,9.36c-15.134,1.965-30.234,4.135-45.369,6.109c-7.79,0.867-15.572,2.454-23.439,1.828
		c0.343-1.347,0.789-2.72,2.059-3.44c3.99-2.908,8.228-5.465,12.397-8.099C512.706,1350.784,537.158,1333.428,558.684,1312.794z"/>
	<path fill="#FF6600" stroke="#FF6600" d="M267.64,1411.853c10.467-1.51,20.831-3.938,31.41-4.487
		c6.907,8.545,13.77,17.116,20.926,25.456c-9.111,3.792-18.669,6.332-28.141,9.034c-17.399,4.607-35.476,7.799-53.519,6.134
		c-4.968-0.429-9.764-1.896-14.714-2.402c1.87,3.972,5.379,7.807,4.59,12.5c-1.115,4.298-5.568,6.272-9.292,7.85
		c-7.336,3.226-15.314,5.139-22.032,9.652c9.103,0.755,18.163-1.132,27.017-3.029c32.259-7.782,62.493-21.826,93.92-32.19
		c2.325-0.789,4.702-1.407,7.078-2.025c10.364,11.059,20.96,21.895,32.105,32.165c-5.319,5.311-11.728,9.309-17.966,13.444
		c-12.389,7.979-25.619,15.126-40.152,18.214c-9.849,2.531-20.411,2.617-30.157-0.438c-2.454-0.789-4.925-1.519-7.447-2.051
		c3.209,4.058,7.85,7.516,8.588,13.007c0.575,3.226-1.69,6.014-4.23,7.687c-7.241,4.933-16.121,6.109-24.254,8.828
		c5.568,2.531,11.823,0.867,17.579-0.017c19.836-3.157,38.617-10.879,56.393-19.999c12.655-6.177,24.615-13.642,36.712-20.805
		c4.933-3.132,9.618-6.658,14.791-9.386c13.204,11.068,27.034,21.415,41.645,30.569c7.653,5.105,15.864,9.275,23.791,13.916
		c-1.69,6.932-5.122,13.564-10.819,18.034c-7.988,6.718-18.909,7.404-28.87,8.065c2.025,2.222,5.542,3.346,6.392,6.452
		c-32.302-11.368-65.634-20.694-99.909-23.25c0.48-0.369,0.97-0.712,1.467-1.03c-7.044,0.875-14.156-0.146-21.226,0
		c-16.301-0.223-32.594,0.498-48.895,0.197c-16.636-0.189-33.177-4.238-48.114-11.54c-4.067-1.93-8.082-5.165-8.803-9.866
		c-1.081-9.043,0.944-18.06,0.609-27.103c0.043-13.221-3.964-26.588-12.174-37.047c-1.544-1.93-3.192-3.784-4.616-5.791
		c6.263-3.354,13.015-5.671,19.75-7.859C206.682,1423.513,237.122,1417.233,267.64,1411.853z"/>
	<path fill="#E84F08" stroke="#E84F08" d="M319.975,1432.822c1.81,1.664,3.397,3.569,4.908,5.525
		c-2.377,0.618-4.753,1.235-7.078,2.025c-31.427,10.364-61.661,24.409-93.92,32.19c-8.854,1.896-17.914,3.784-27.017,3.029
		c6.718-4.513,14.697-6.426,22.032-9.652c3.724-1.579,8.176-3.552,9.292-7.85c0.789-4.693-2.72-8.528-4.59-12.5
		c4.95,0.506,9.746,1.973,14.714,2.402c18.043,1.665,36.12-1.527,53.519-6.134C301.306,1439.153,310.863,1436.614,319.975,1432.822z
		"/>
	<path fill="#E84F08" stroke="#E84F08" d="M356.987,1470.512c3.363,2.728,6.623,5.594,9.858,8.485
		c-5.173,2.728-9.858,6.255-14.791,9.386c-12.097,7.164-24.057,14.628-36.712,20.805c-17.777,9.12-36.557,16.842-56.393,19.999
		c-5.757,0.884-12.011,2.548-17.579,0.017c8.133-2.72,17.013-3.895,24.254-8.828c2.54-1.673,4.805-4.461,4.23-7.687
		c-0.738-5.491-5.379-8.948-8.588-13.007c2.522,0.532,4.993,1.261,7.447,2.051c9.746,3.054,20.308,2.969,30.157,0.438
		c14.534-3.089,27.763-10.235,40.152-18.214C345.259,1479.821,351.668,1475.822,356.987,1470.512z"/>
	<path fill="#E84F09" stroke="#E84F09" d="M432.281,1523.482c2.806,1.201,5.568,2.522,8.236,4.024
		c-2.394,11.419-3.766,23.113-7.438,34.241c-0.832,2.96-3.887,4.101-6.538,4.916c-10.021-1.158-18.214-7.447-27.558-10.63
		c-0.849-3.106-4.367-4.23-6.392-6.452c9.961-0.661,20.883-1.347,28.87-8.065C427.159,1537.046,430.591,1530.414,432.281,1523.482z"
		/>
	<path fill="#FC6603" stroke="#FC6603" d="M433.079,1561.747c3.672-11.128,5.045-22.822,7.438-34.241
		c1.587,0.927,4.607,1.416,3.929,3.921c-0.352,7.018-1.201,14.053-2.891,20.883c-1.493,4.796-2.986,10.081-7.035,13.401
		c-2.179,1.887-5.405,2.076-7.979,0.952C429.193,1565.848,432.247,1564.707,433.079,1561.747z"/>
</g>
</svg>
